<svg id="Layer_1" data-name="Layer 1" xmlns="http://www.w3.org/2000/svg" viewBox="0 0 376.85 512.51"><defs><style>.cls-1{fill:#1d1d1b;}.cls-11,.cls-2{fill:#fff;}.cls-3{fill:#eac099;}.cls-4{fill:#8c1820;}.cls-5{fill:#7e4e24;}.cls-6{fill:#b0dad2;}.cls-7{fill:#89b1a8;}.cls-8{fill:#88b0a8;}.cls-9{fill:#d9d9d9;}.cls-10{fill:#c7a584;}.cls-11{opacity:0.44;}.cls-12{fill:#683b11;}.cls-13{fill:#d6af89;}.cls-14{fill:#f5f5f5;}</style></defs><title>Artboard 1 copy 9</title><path class="cls-1" d="M369.79,259.16l-4.3-2.76,3.76-3.48A15.52,15.52,0,0,0,374,238.83a15.26,15.26,0,0,0-9.18-11.57l-4.7-2,3.11-4.1a15.57,15.57,0,0,0,2.27-14.71,15.11,15.11,0,0,0-11-9.77l-5-1.1,2.37-4.59a15.61,15.61,0,0,0-.27-14.89,15,15,0,0,0-12.51-7.67l-5.07-.21,1.54-4.93a15.6,15.6,0,0,0-2.8-14.62,14.92,14.92,0,0,0-13.63-5.34l-5,.7.68-5.13a15.56,15.56,0,0,0-5.25-13.9,14.83,14.83,0,0,0-14.34-2.85l-4.84,1.58-.2-5.18a15.39,15.39,0,0,0-7.53-12.76,14.79,14.79,0,0,0-14.6-.26l-4.5,2.41-1.07-5.07a15.26,15.26,0,0,0-9.6-11.23A14.84,14.84,0,0,0,238.45,94l-4,3.17-1.92-4.79A15.12,15.12,0,0,0,221.15,83a14.88,14.88,0,0,0-13.82,4.84l-3.41,3.83-2.71-4.38a14.93,14.93,0,0,0-25.56,0l-2.71,4.38-3.42-3.84A14.86,14.86,0,0,0,155.71,83a15.12,15.12,0,0,0-11.36,9.36l-1.92,4.8-4-3.18A14.83,14.83,0,0,0,124,91.68a15.26,15.26,0,0,0-9.58,11.23L113.32,108l-4.5-2.41a14.79,14.79,0,0,0-14.6.26,15.39,15.39,0,0,0-7.53,12.76l-.21,5.18-4.83-1.58A14.83,14.83,0,0,0,67.31,125a15.48,15.48,0,0,0-5.24,13.9l.69,5.13-5-.7a14.92,14.92,0,0,0-13.64,5.34,15.59,15.59,0,0,0-2.79,14.62l1.55,4.94-5.08.2a15,15,0,0,0-12.52,7.67A15.64,15.64,0,0,0,25,191l2.36,4.59-5,1.1a15.12,15.12,0,0,0-11,9.77,15.63,15.63,0,0,0,2.28,14.71l3.11,4.1-4.7,2a15.24,15.24,0,0,0-9.18,11.57,15.51,15.51,0,0,0,4.74,14.09l3.76,3.48-4.3,2.76a15.54,15.54,0,0,0,0,26.06l4.3,2.76-3.76,3.48a15.5,15.5,0,0,0-4.74,14.08,15.26,15.26,0,0,0,9.18,11.58l4.71,2-3.12,4.09a15.58,15.58,0,0,0-2.28,14.71,15.16,15.16,0,0,0,11,9.77l5,1.1L25,353.35a15.59,15.59,0,0,0,.26,14.88,15,15,0,0,0,12.52,7.68l5.08.21-1.55,4.93a15.59,15.59,0,0,0,2.79,14.62A14.92,14.92,0,0,0,57.72,401l5-.7-.68,5.13a15.47,15.47,0,0,0,5.24,13.9,14.83,14.83,0,0,0,14.34,2.85l4.84-1.57.2,5.17a15.36,15.36,0,0,0,7.52,12.76,14.79,14.79,0,0,0,14.6.26l4.5-2.41,1.08,5.06A15.24,15.24,0,0,0,124,452.69a14.83,14.83,0,0,0,14.43-2.31l4-3.17,1.92,4.79a15.12,15.12,0,0,0,11.36,9.36,14.9,14.9,0,0,0,13.81-4.83l3.42-3.84,2.71,4.38a14.93,14.93,0,0,0,25.56,0l2.71-4.37,3.41,3.83a14.88,14.88,0,0,0,13.82,4.83A15.12,15.12,0,0,0,232.51,452l1.92-4.79,4,3.17a14.81,14.81,0,0,0,14.42,2.32,15.28,15.28,0,0,0,9.6-11.24l1.08-5.06,4.49,2.42a14.81,14.81,0,0,0,14.6-.27,15.39,15.39,0,0,0,7.53-12.76l.2-5.18,4.84,1.58a14.83,14.83,0,0,0,14.34-2.85,15.52,15.52,0,0,0,5.24-13.89l-.68-5.13,5,.69a14.9,14.9,0,0,0,13.63-5.34,15.59,15.59,0,0,0,2.8-14.62L334,376.12l5.08-.2a15,15,0,0,0,12.51-7.69,15.59,15.59,0,0,0,.27-14.88l-2.37-4.58,5-1.1a15.14,15.14,0,0,0,11-9.78,15.6,15.6,0,0,0-2.27-14.71l-3.11-4.1,4.7-2A15.26,15.26,0,0,0,374,305.55a15.51,15.51,0,0,0-4.74-14.08L365.49,288l4.3-2.76a15.55,15.55,0,0,0,0-26.06Z"/><circle class="cls-2" cx="188.09" cy="271.4" r="165.78"/><rect class="cls-3" x="155.71" y="326.9" width="67.62" height="122.69"/><path class="cls-1" d="M227.11,453.37H151.93V323.12h75.18Zm-67.62-7.56h60.06V330.68H159.49Z"/><polygon class="cls-4" points="353.17 500.51 28.22 508.65 9.31 402.97 370.52 387.86 353.17 500.51"/><path class="cls-1" d="M25.08,512.51,4.83,399.38,375,383.9,356.42,504.21ZM13.8,406.57l17.57,98.22,318.54-8,16.18-105Z"/><path class="cls-5" d="M154.16,348.32c3.68,6,7.35,13.84,3.33,19.61-2.7,3.88-8.07,5-12.71,4.23s-8.84-3.2-13.12-5.18c-7.51-3.49-15.52-5.82-23-9.44s-14.53-8.82-18.19-16.28c-6.15-12.55-1.19-27.35,1.14-41.14,5.2-30.7-3.37-62.74,3.48-93.11.81-3.59,1.87-7.22,4.09-10.15,2.83-3.73,7.19-5.9,11.47-7.77,48-20.93,103.36-18.69,153.77-4.74,2.59.72,5.31,1.55,7.13,3.53,1.56,1.7,2.24,4,2.81,6.25,5.33,21.1,4.58,43.18,5.94,64.91a331.15,331.15,0,0,0,10.59,64.71c1.05,3.92,2,8.64-.78,11.58-1.35,1.44-3.31,2.08-5.09,2.92-8.87,4.16-14.06,13.53-21.83,19.52-4.26,3.29-9.23,5.5-14.15,7.67L229.83,374a13.61,13.61,0,0,1-5.37,1.53c-4.07,0-7.3-3.75-8.47-7.67s-.86-8.12-1.22-12.2a3.16,3.16,0,0,0-.62-1.91c-1-1.07-2.69-.51-4,.09a57.16,57.16,0,0,1-55.73-5.5"/><path class="cls-3" d="M259.14,262.23a198.77,198.77,0,0,0-6-24.18c-6-11.58-13.06-22.61-18.93-34.27a122.09,122.09,0,0,1-13.58-9.66c-.8-.67-1.59-1.37-2.37-2.08a92.9,92.9,0,0,1-6.77,9.72,122.94,122.94,0,0,1-21,20.37,11.88,11.88,0,0,1-4.27,2c-5.76,6.15-12.83,10.14-21,13.52-6.39,2.66-13.13,4.34-19.52,7a11.1,11.1,0,0,1-1.15.39c-6.95,3.88-14,7.59-21.81,8.91l-1.57.24a63.56,63.56,0,0,1-5.05,9.94c-.33.52-.67,1-1,1.49a75.59,75.59,0,0,0,.51,12.49,96.41,96.41,0,0,0,5.31,18.63c2.48,5,5.68,9.42,8.49,14.23,3.74,6.4,7.1,13.08,11.45,19.08,4.44,5.06,9.68,9.31,14.06,14.42.8.92,1.54,1.83,2.25,2.74a23.86,23.86,0,0,1,6,2.2A22.13,22.13,0,0,1,168,352.9a10.23,10.23,0,0,1,3.46,1.41,33.57,33.57,0,0,0,25.47,4c8.45-5.48,16.86-11,24.81-17.2a111.17,111.17,0,0,0,17-17.18c3.75-5.19,7.39-10.45,11.18-15.61L248,311l2.77-3.75c-.26.36-.52.73-.79,1.09,1.51-2,3-4.09,4.43-6.21a158.47,158.47,0,0,0,5.35-23.56A81,81,0,0,0,259.14,262.23Z"/><path class="cls-2" d="M138.68,261.68a12.75,12.75,0,0,1,7.92-4.37,1.12,1.12,0,0,1,1,.23,1.15,1.15,0,0,1,.16.71c0,1-.27,1.95-.3,2.93A14.12,14.12,0,0,0,149,267a8.6,8.6,0,0,0,2,3.22,6.53,6.53,0,0,0,2.76,1.34,13.67,13.67,0,0,0,9.41-.95,6.41,6.41,0,0,0,2.07-1.49,7,7,0,0,0,1.42-3.65,20.17,20.17,0,0,0-.17-6.8c-.11-.55-.1-1.33.45-1.43a1,1,0,0,1,.64.19,39.13,39.13,0,0,1,7.53,5.57,2,2,0,0,1,.67.94c.15.66-.36,1.27-.84,1.73a23.69,23.69,0,0,1-10.65,5.87,40.16,40.16,0,0,1-6.08.9,31.56,31.56,0,0,1-5.83.08,18,18,0,0,1-12.51-7.23c-.78-1.07-1.47-2.42-1.07-3.68"/><path class="cls-2" d="M232.4,257.7c.75.47,1.76.47,2.42,1.06a2.37,2.37,0,0,1,.55,2.42,6.64,6.64,0,0,1-1.35,2.23c-2.48,3-5.37,6-9.13,7.11a17.66,17.66,0,0,1-4,.58A40.53,40.53,0,0,1,201,266.92c-1.44-.72-3-1.84-3-3.46a4.54,4.54,0,0,1,1.71-2.84c1.91-1.89,3.93-3.84,6.5-4.6a18.26,18.26,0,0,1,0,5.27,6.39,6.39,0,0,0,3.59,7.34,15.58,15.58,0,0,0,5.48,2.19,9.45,9.45,0,0,0,7.29-1.93,8.47,8.47,0,0,0,3.11-6.83c-.08-1.72-.72-3.38-.84-5.1a1.63,1.63,0,0,1,.17-1,1.26,1.26,0,0,1,1.35-.43,5,5,0,0,1,1.35.68,9.64,9.64,0,0,0,4.93,1.37"/><path class="cls-6" d="M149.4,268.89a11.63,11.63,0,0,1-1.22-5.08,9.09,9.09,0,0,1,1.19-5.73,8,8,0,0,1,3.62-2.64,12.55,12.55,0,0,1,7.32-.85,8.53,8.53,0,0,1,5.83,4.3,10.89,10.89,0,0,1,1,3.41,12,12,0,0,1-.12,4.55,8.59,8.59,0,0,1-5.55,6,15,15,0,0,1-4.63.54,9.2,9.2,0,0,1-2.86-.35c-1.92-.64-3.23-2.39-4.43-4"/><path class="cls-6" d="M206.28,259c.92-1.75,2.06-3.57,3.89-4.32a8.27,8.27,0,0,1,3.57-.37c4,.24,9.17.44,10.81,4.87a8,8,0,0,1,.39,1.94,12.8,12.8,0,0,1-.43,5.41c-1.32,3.76-5.22,5.34-8.92,5.15a9.94,9.94,0,0,1-3.34-.63,8.12,8.12,0,0,1-3.81-3.76c-1.39-2.61-1.4-5.36-2.33-8.05"/><path class="cls-7" d="M149.25,266.62a7.4,7.4,0,0,1,3.7-3.24,25.83,25.83,0,0,1,6.81-2.2,10.87,10.87,0,0,1,4.4-.07,4.91,4.91,0,0,1,3.42,2.59,10.6,10.6,0,0,0-2.28-7.37,5.85,5.85,0,0,0-2.29-1.84,8.22,8.22,0,0,0-4.35-.13l-3.8.57c-2,.3-4.11.71-5.31,2.28a6.66,6.66,0,0,0-1,4.23,19.56,19.56,0,0,0,.81,5.15"/><path class="cls-8" d="M206.12,261.13c4.94-1.05,10.2-2,14.92-.24a6.39,6.39,0,0,1,4.09,3.69,2.23,2.23,0,0,0,.68-1.63,13.94,13.94,0,0,0-.44-5.18,4.61,4.61,0,0,0-1.26-2.31,5,5,0,0,0-2.36-.94,49.15,49.15,0,0,0-7.06-.65,8.44,8.44,0,0,0-4.76.7,8.71,8.71,0,0,0-3,3.82L205.65,261a.65.65,0,0,0,.75.11"/><path class="cls-9" d="M141,266.53a5.36,5.36,0,0,1,1.56-3.65,15.49,15.49,0,0,1,3.23-2.44c3.24-2,6.62-4,10.38-4.54a12.94,12.94,0,0,1,3.88,0,22.77,22.77,0,0,1,7.16,2.84l8.82,4.73a2.39,2.39,0,0,0-.41-.92,16.22,16.22,0,0,0-8.3-6,39.32,39.32,0,0,0-10.23-1.76,23,23,0,0,0-5,0,26.14,26.14,0,0,0-4.49,1.21,18.23,18.23,0,0,0-3.9,1.68c-1.33.84-2.41,2-3.68,2.95a2.74,2.74,0,0,0-1.15,1.21,2.07,2.07,0,0,0,.56,1.88,9.82,9.82,0,0,1,1.31,1.58,2.46,2.46,0,0,1,.25,1.41"/><path class="cls-9" d="M197.94,262.71a9.27,9.27,0,0,1,7.71-3.11c1.87-2.22,4-4.57,6.81-5.13a11.62,11.62,0,0,1,3.28-.05c2.75.23,5.59.68,7.89,2.21.9.59,1.69,1.32,2.59,1.9,2.25,1.44,5.11,1.8,7.19,3.48.45.36,1,.81,1.54.61s.66-.9.7-1.47a4.47,4.47,0,0,0-.14-1.86c-.5-1.34-2.06-1.87-3.44-2.21-3.33-.83-6.68-1.56-10-2.29a26.93,26.93,0,0,0-5.63-.81,20.28,20.28,0,0,0-5.62.93c-4.75,1.39-9.37,3.75-12.49,7.6"/><path class="cls-2" d="M176,326.14,173.1,324a11,11,0,0,1-1.68-1.43,11.41,11.41,0,0,1-2-3.73c-.09-.22-.16-.51,0-.67a.62.62,0,0,1,.4-.1,22,22,0,0,1,3.53.37,77.71,77.71,0,0,0,13,1.3A81.08,81.08,0,0,0,198,318.53a23.77,23.77,0,0,1,7.23-.38,1.39,1.39,0,0,1,.92.4,1.26,1.26,0,0,1,.2.93c-.19,1.87-1.79,3.25-3.32,4.33-3.43,2.42-7.25,4.46-11.41,4.95a24.36,24.36,0,0,1-9.09-.92,43.26,43.26,0,0,1-4.27-1.37,6.71,6.71,0,0,0-2.35-.58"/><path class="cls-10" d="M180.64,284.22a9.56,9.56,0,0,1-3,5.16,38.41,38.41,0,0,0-4.22,4.34,6.48,6.48,0,0,0-1.25,5.7c.67,2,2.55,3.19,4.37,4.16A13.35,13.35,0,0,1,175,300.5a6.75,6.75,0,0,1,1.05-5.91c.85-1.14,2.05-2,2.95-3.07a7.62,7.62,0,0,0,1.27-7.11"/><path class="cls-10" d="M170.88,322.83l5,7.67a25.57,25.57,0,0,0,3.58,4.68,8.47,8.47,0,0,0,5.21,2.51,10.15,10.15,0,0,0,2.33-.2,26.12,26.12,0,0,0,9.46-3.7,11.94,11.94,0,0,0,3-2.51,15.92,15.92,0,0,0,1.47-2.37l1.67-3.12a39.25,39.25,0,0,1-3.91,2.17,21.35,21.35,0,0,1-15,1.23c-4.56-1.4-8.43-4.42-12.78-6.39"/><ellipse class="cls-11" cx="160.8" cy="267.04" rx="2.47" ry="2.48" transform="matrix(1, -0.02, 0.02, 1, -4.83, 2.97)"/><ellipse class="cls-11" cx="218.79" cy="265.99" rx="2.47" ry="2.48" transform="translate(-4.8 4.02) rotate(-1.04)"/><path class="cls-12" d="M200.28,174.88,134.86,188c-6.52,1.31-13.19,2.67-18.9,6.1-11.27,6.77-16.81,20.67-16.81,33.87s4.66,25.92,9.78,38.07c2.47,5.84,5.06,11.67,6.61,17.82,1.2,4.74,1.77,9.67,3.52,14.24,2,5.27,5.52,9.82,9.17,14.1,7.18,8.42,15.18,16.22,21,25.62s9.36,21,6.44,31.64c-.53,1.94-1.56,4.09-3.52,4.49a5.79,5.79,0,0,1-2.34-.16,155.46,155.46,0,0,1-41.7-15A42.4,42.4,0,0,1,98.2,352c-6.64-6.48-9.12-16.27-9.1-25.57S91.31,308,92.65,298.8c4.29-29.53-.24-59.73,3-89.41.62-5.67,1.76-11.8,6-15.6,2.38-2.12,5.45-3.24,8.45-4.32,29-10.4,59.87-21,90-14.54"/><path class="cls-12" d="M129,215.09q-1.71,10.08-2.55,20.27c-.27,3.29-.18,7.23,2.55,9.07,2,1.33,4.68,1,6.77-.14,4.73-2.52,6.91-8,8.73-13.09.94,2.7-.79,6.71,1.76,8a4.2,4.2,0,0,0,2.51.17c11.07-1.61,20.78-8,30.08-14.3,3-2,6.12-4.14,8.23-7.12a30.27,30.27,0,0,0,3-5.89l3.85-9.09-.49,6.51c1.18.74,2.7-.06,3.84-.87A85.75,85.75,0,0,0,217,189c-.21,6.2-3.4,11.91-7.17,16.81C196.47,223.14,175.84,233,156,242c-11,5-22.1,10-33.94,12.25a3.69,3.69,0,0,1-2.11,0c-1.48-.62-1.56-2.67-1.36-4.27A112.49,112.49,0,0,1,129,214.57"/><path class="cls-12" d="M260.31,277.6a117.52,117.52,0,0,1-14.14,45.88c-5.44,9.81-12.47,19.35-13.44,30.55a10.21,10.21,0,0,0,.78,5.64c1.42,2.69,4.59,3.9,7.57,4.39a26.67,26.67,0,0,0,12.2-.84c-6.19,7.15-16.07,9.53-25.29,11.54-2,.44-4.27.87-6.16,0s-2.9-2.71-3.7-4.54c-3-6.93-3.13-14.73-3.21-22.29a7,7,0,0,1,.38-2.89,7.57,7.57,0,0,1,2.32-2.56,90.33,90.33,0,0,0,9.28-9.28c7.4-8.16,14.83-16.35,20.93-25.54s10.85-19.47,12.33-30.42"/><path class="cls-13" d="M208.76,211,173.91,237.9c-1.61,1.24-3.4,3-2.8,5,.41,1.33,1.79,2.06,2.86,3s1.9,2.59,1,3.62c-12.29-3.42-25.39,3.07-34.46,12.07a4,4,0,0,0-1.5,2.55,3.75,3.75,0,0,0,1.34,2.57c6.54,6.59,17.23,6.55,26.16,4.1,2.12-.58,4.37-1.27,6.46-.58s3.35,2.42,4.43,4.2a18.63,18.63,0,0,1,2.68,6.81c.57,3.76-.47,7.55-1.5,11.21L176,301.5c-.56,1.95-1.17,4-2.64,5.4-1.68,1.58-4.11,2-6.19,2.94s-4,3.28-3.13,5.41a7.43,7.43,0,0,0,2.06,2.35c6.3,5.89,4.78,16.53,9.48,23.77,3.65,5.63,10.73,8.34,17.41,8.06s13-3.16,18.65-6.73,10.84-7.87,16.49-11.45c-2.07,4.63-5.9,8.19-9.63,11.6-9.06,8.25-19.42,16.92-31.64,16.76-10.38-.14-19.49-6.69-27.51-13.32-13.62-11.26-26.56-23.78-35.5-39.06-5.9-10.09-10-21.68-9-33.35A40.61,40.61,0,0,1,117,263.61a19.88,19.88,0,0,1,4.38-7.52,23.23,23.23,0,0,1,6.19-4c10.57-5.24,21.91-8.71,32.81-13.19A189.5,189.5,0,0,0,208,210.52"/><path class="cls-14" d="M100.9,186.85c-1-11.2-3-37.94-3.85-39.61-1.44-2.93-4.52-4.6-7.27-6.34a55.31,55.31,0,0,1-14-80.61,37.33,37.33,0,0,1,9.83-9.14A43.36,43.36,0,0,1,97,46.57a92.58,92.58,0,0,1,27.16-3.16,8.66,8.66,0,0,0,3.25-.3,8.2,8.2,0,0,0,3.16-2.73l16.18-19.81c4-4.9,8.1-9.89,13.44-13.26,13.67-8.62,31.56-4.58,46.6,1.32,11.06,4.33,22.55,10.25,27.85,20.93,2.64,5.3,4.28,12.22,9.88,14.08a18.41,18.41,0,0,0,6.29.45,54.73,54.73,0,0,1,43.89,21,55.4,55.4,0,0,1,9.25,48c-1.72,6.14-4.64,12.1-9.31,16.42s-11.29,7-15.56,12c-8.78,10.31-4.85,25.82-5.32,39.39-.05,1.66-.55,3.74-2.17,4a3.78,3.78,0,0,1-1.56-.18c-27.62-7.24-55.85-14-84.36-12.56-25,1.23-49.27,8.7-73.45,15.34-4,1.09-8.46,2.08-11.94-.11"/><path class="cls-2" d="M131.19,37.08C145.78,25.2,166.24,23.92,184.91,26c21.72,2.39,44.68,9.73,57.36,27.63-3.15-2.85-.86-9.23,3.37-9.41a10.35,10.35,0,0,1,3.38.62,75.53,75.53,0,0,1,52.41,78.41c0-12.92,8.59-25.22,6.29-37.93-1.08-5.94-4.44-11.18-8-16-6.62-9-14.44-17.33-24.21-22.67s-21.73-7.35-32.16-3.48a3.46,3.46,0,0,1-1.8.35c-1.11-.18-1.72-1.35-2.18-2.38C234.42,30.17,227.43,19.92,217.73,13c-13.65-9.79-32-12.12-48-7.1s-29.49,17-37.45,31.83"/><path class="cls-1" d="M175.56,293.65a19.64,19.64,0,0,0-1.55,2.52,5.93,5.93,0,0,0-.69,3.27,4.54,4.54,0,0,0,.49,1.6c.12.24.27.44.4.65s.27.36.46.57a6.59,6.59,0,0,0,1,.88,5.6,5.6,0,0,0,1.09.6,5.83,5.83,0,0,0,2,.43,8.28,8.28,0,0,0,1.53-.11c.41-.08.72-.16.93-.22l.32-.11-.33,0c-.22,0-.54-.05-.93-.11a6.76,6.76,0,0,1-2.86-1.12,5,5,0,0,1-.68-.63,4.38,4.38,0,0,1-.57-.8,3.08,3.08,0,0,1-.48-1.73,3.83,3.83,0,0,1,.71-1.79,23.88,23.88,0,0,1,1.55-2,22.93,22.93,0,0,0,3.25-4.72l.3-.67c.09-.23.2-.5.26-.7l.1-.3,0-.15.06-.19c.05-.21.11-.41.15-.61a15.45,15.45,0,0,0,.35-2.28,13.59,13.59,0,0,0-.16-3.49,9.35,9.35,0,0,0-.24-1A2.93,2.93,0,0,0,182,281a2.65,2.65,0,0,0-.22.3c-.15.19-.32.48-.55.85a21.13,21.13,0,0,0-1.47,3.06c-.25.63-.49,1.32-.73,2.05l-.17.55-.18.54-.17.47-.22.51a18.78,18.78,0,0,1-1.18,2.09C176.61,292.16,176.1,292.89,175.56,293.65Z"/><path class="cls-1" d="M182.69,301.64a.33.33,0,0,0,.06.39,6.62,6.62,0,0,0,1.27.9,7.78,7.78,0,0,0,1.46.65,5.56,5.56,0,0,0,.93.21l.19,0H187a3.29,3.29,0,0,0,.55-.07,3,3,0,0,0,.43-.12h0l.46-.18a6.09,6.09,0,0,1,2.16-.3c.6,0,1.13,0,1.42-.64a.91.91,0,0,0,0-.95.35.35,0,0,0-.22-.24l-.1,0-.09,0-.17-.05h-.09a2.73,2.73,0,0,0-.53-.05h-.21a3.8,3.8,0,0,0-.46,0,9.17,9.17,0,0,0-1.51.42l-.31.11a10.68,10.68,0,0,1-1.15.36l-.07,0-.26,0h-.29a6.32,6.32,0,0,1-.73-.09c-.4-.07-.79-.16-1.14-.24l-.23-.05c-.83-.2-1.43-.32-1.43-.32A.34.34,0,0,0,182.69,301.64Z"/><path class="cls-4" d="M207.73,316.88h0l-.66,0c-6,.25-7.87-3-13-2.81-2.07.06-4.66,2-8.26.95s-6.24-1.6-10.75.2a14.37,14.37,0,0,1-5.08.91c-.28,0-.58,0-.92,0-.56,0-1.08-.07-1.54-.12-3-.51-5.27-2.46-4.52-1.62a24.23,24.23,0,0,0,4.12,3.17,7,7,0,0,1,2.07,2.57l0,.07v0h0c2.81,5.7,8.48,16.19,18.81,16,9.86-.18,16-10,18.66-15.33h0a6,6,0,0,1,3.33-3.39l.47-.2a8.31,8.31,0,0,0,2.8-2C213.7,315,211,316.67,207.73,316.88ZM205.49,320c-2.56,2.14-6.1,4.63-9.17,5.1-4.47.67-8.89,1.78-8.89,1.78-2.56-.71-5.05-.59-9-1.9a25.16,25.16,0,0,1-6.5-4.2c-.15-.14-.32-.28-.51-.43h0l-.83-.71c-1.32-1.29,1-.38,1-.38h0a42.38,42.38,0,0,0,16.33,3,63.36,63.36,0,0,0,17-2.94h0S206.73,318.92,205.49,320Zm1.41-1.23,0-.11.11,0Z"/><path class="cls-1" d="M194.6,338.2c-.36-.05-.76-.13-1.17-.15s-.87-.05-1.32-.06-.93,0-1.41.08-1,.14-1.45.23-1,.21-1.42.36a13,13,0,0,0-1.33.49,12.6,12.6,0,0,0-2.21,1.21,10.15,10.15,0,0,0-1.36,1.16,4.18,4.18,0,0,0-.44.52l.64-.19,1.65-.45c.67-.18,1.44-.39,2.27-.58.41-.11.84-.19,1.28-.3l1.31-.28c.45-.09.89-.16,1.33-.26l1.29-.23c.42-.07.83-.13,1.22-.21s.77-.12,1.11-.18.67-.14.95-.18.54-.1.75-.14l.66-.16s-.23-.1-.64-.23A10.19,10.19,0,0,0,194.6,338.2Z"/><path class="cls-1" d="M197.84,251a1.38,1.38,0,0,0,.56-.12l6.45-2.84c2.4-1.05,4.56-1.95,6.59-2.75,1.45-.57,2.64-1,3.76-1.4s2.57-.86,3.92-1.23c.21-.07.42-.11.63-.16l.94-.22h0l1.27-.15a5.09,5.09,0,0,1,.55,0h.41a7.32,7.32,0,0,1,1.2.07l.62.06c.62.09,1.28.2,1.89.33a35.55,35.55,0,0,1,3.56,1c1,.34,2.08.73,3.14,1.17.83.34,1.65.7,2.6,1.14.77.36,1.43.69,2,1,1.07.55,1.68.9,1.69.9a.64.64,0,0,0,.88-.23.67.67,0,0,0-.19-.9s-.61-.41-1.67-1.05c-.54-.32-1.19-.71-2-1.13-.93-.53-1.76-1-2.58-1.37-1.06-.53-2.12-1-3.16-1.45a38.58,38.58,0,0,0-3.7-1.33c-.69-.2-1.41-.37-2.09-.52l-.64-.11a10.61,10.61,0,0,0-1.54-.2l-.36,0c-.27,0-.54,0-.83,0l-1.05,0-1.52.19c-.26,0-.53.08-.76.14-1.44.28-2.85.61-4.2,1-1.18.31-2.45.68-4,1.15-2.15.67-4.41,1.43-6.92,2.31-2.91,1-4.79,1.75-5.65,2.08a1.47,1.47,0,0,0-.9,1.06l-.41,1.86a1.46,1.46,0,0,0,1.45,1.79Z"/><path class="cls-1" d="M309.18,92.79a54.59,54.59,0,0,0-66.91-52.47c-.68-1.86-1.46-3.67-2.31-5.44-.06-.12-.11-.24-.16-.35h0A61.26,61.26,0,0,0,183.69,0,60.51,60.51,0,0,0,147.2,13a62.14,62.14,0,0,0-20.49,29.18,54,54,0,0,0-9.84-.75c-.62,0-1.23.05-1.84.08s-1.19,0-1.79,0A54.89,54.89,0,0,0,86.08,143.26a21.64,21.64,0,0,0,4.51,2.48l.17.07c1.16.56,2.35,1.08,3.55,1.55l.78,42.51c-1.88,5.6-2.86,18.12-2.9,18.63-1.36,15.05-1.93,32.93-1.69,53.15.35,29.64-2.29,54.71-7.87,74.53l-.38,1.37.92,1.08c17.41,20.35,43,34.87,72.05,40.88a4.84,4.84,0,0,0,1.76,0h0a4.31,4.31,0,0,0,2.73-1.86,22.35,22.35,0,0,0,4.77-12.44v-.08c0-.59.05-1.17,0-1.77v-.5c.34-6.71,2.88-7.46,6.42-5.54l.34.19.22.13h0c6.64,3.7,12.67,5.74,17.38,5.65s10.87-2.62,17.7-7h0c2.78-1.84,4.86-1.56,5.24,3.13,0,.11,0,.22,0,.33.27,6.22,1.35,12.36,5.14,17a5.42,5.42,0,0,0,1.92,1.61,5.57,5.57,0,0,0,4-.15c14.15-4.93,28.32-9.68,41-17.88a117.42,117.42,0,0,0,29.49-26.92h0a2.68,2.68,0,0,0,.43-2.4h0c-6-19.41-9.45-43.93-10.16-72.9-.48-19.5-1.63-36.83-3.43-51.5-.07-1.24-.77-12.49-3.29-20l-.73-40.21.23,0c19.7-8.12,33.11-28.82,32.7-51.64,0-.28,0-.56,0-.85S309.19,93.17,309.18,92.79ZM146.84,329.91c-15.14-16.17-24.9-33.52-27.65-48.77a23.63,23.63,0,0,0-.5-3.43c-.16-1.45-.26-2.88-.29-4.28,0-.58,0-1.17,0-1.76.8-7.8,6-14.64,11.93-16.66h0q10.22-3.58,19.38-7.36h0s6.43-2.06,10.34-2l1.5.52c2.07.72,4.26,1.54,6.69,2.51l6.55,2.6a1.54,1.54,0,0,0,.56.1,1.47,1.47,0,0,0,1.39-1.84l-.48-1.85a1.44,1.44,0,0,0-.94-1c-.87-.3-2.77-.95-5.71-1.87-1.72-.54-3.31-1-4.83-1.45h0c-2.81-1.11,4.91-4.83,6.65-5.74l0,0c13.09-6.75,23.87-13.89,32.25-21.35a87.05,87.05,0,0,0,6.87-6.82h0c4.81-4.77,10.83-12.9,17-6.86l1.2,1.35c.57.73,1.07,1.31,1.49,1.76,15,18,25.39,43.38,25.78,65.2.31,16.8-9.45,37.75-26.78,57.48-14.31,16.3-31.72,28.71-40.49,28.87C179.47,357.44,161.83,345.94,146.84,329.91Zm141.62,1.37c-14.17,18-34.66,31.64-58.58,39.26-.65.16-9.85,2.23-11.83-3.78-.09-.32-.17-.65-.25-1s-.09-.49-.14-.7a16.4,16.4,0,0,1-.27-2.73l-.25-13.83c21.89-18.13,45.35-50,44.84-77.71-.55-30.07-31.1-81-45-83.42-1.16-.21-3.5,14.93-25.64,31.13a1,1,0,0,1-1.45-1.23l0,0c.36-.68.68-1.36,1-2s.61-1.35.89-2c.56-1.33,1-2.65,1.44-3.9.22-.63.39-1.25.56-1.85s.32-1.17.44-1.73c.28-1.11.44-2.15.6-3.06s.22-1.72.3-2.38c.08-1.32.13-2.07.13-2.07l-.47,2c-.18.63-.39,1.4-.67,2.27s-.62,1.82-1.07,2.85q-.3.78-.69,1.59c-.26.54-.51,1.1-.82,1.66-.58,1.13-1.24,2.29-2,3.45-.37.59-.74,1.18-1.15,1.76s-.8,1.17-1.24,1.74c-.85,1.17-1.77,2.3-2.72,3.41s-1.93,2.19-2.94,3.21-2,2-3,2.93c-2,1.85-4,3.45-5.69,4.76l-1.34,1a272.29,272.29,0,0,1-25.61,11.9c-3.36,1.38-3.21-1.4-2.47-3.37h0c.13-.37.27-.75.39-1.11.21-.63.38-1.25.55-1.84s.32-1.18.44-1.74c.28-1.11.44-2.15.6-3.06s.22-1.72.3-2.38l.13-2.07-.46,2c-.19.63-.4,1.4-.68,2.27s-.62,1.82-1.06,2.85c-.21.52-.44,1-.7,1.59s-.51,1.1-.82,1.66c-.45.89-1,1.8-1.53,2.72-3.78,5.29-11,8.64-11.39,8.82l-3.94,1.37a2.83,2.83,0,0,1-3.69-3.19,270.2,270.2,0,0,1,10.16-38.22c-10.36,18.12-19.58,46.61-19.25,64.48a55.62,55.62,0,0,0,1.39,11.12h0v0c.21.9.43,1.81.67,2.73,2,9.1,3.63,26.27,4.19,38.85,0,0,3-19.72,9.39-10.25l.22.32a142.29,142.29,0,0,0,12.25,15.56h0l0,0c.35.39.71.77,1.07,1.16,6.52,7.48,12.15,20.93,11,34.55-.69,3.44-4.5,3.89-9.84,2.6-18.33-6-34.65-15.71-47.45-28.2-4.27-9.38.49-22.49,2.73-29.4a44.74,44.74,0,0,0-4.24,4.73c2.67-16.26,3.9-34.93,3.66-55.8a525.55,525.55,0,0,1,1.67-52.65c.09-1.21.27-3.15.52-5.35,16.23-24.31,96.19-28.11,96.52-28.12,34.55,1.52,69.11,11.64,76.07,13.78,2.13,7.14,2.72,17.68,2.72,17.8l0,.18c1.79,14.52,2.93,31.7,3.4,51.07C279.18,287.07,282.54,311.63,288.46,331.28ZM255.53,143.34a48.82,48.82,0,0,1-19.26-3.54,37.78,37.78,0,0,0,30.31,7.52h.05a3.82,3.82,0,0,1,4.48,3.7l.59,32.48C259.93,180,220.62,169.32,184.57,170c-23.34.42-46,5.18-62.49,9.69a2.71,2.71,0,0,1-3.39-2.29l-2.38-19.24-1,11.05a19.26,19.26,0,0,1-11.44,16l-.58-31.67a4.47,4.47,0,0,1,3.31-4.39c1.06,0,2.06,0,3-.08a38.43,38.43,0,0,0,9.43-.85c-9.81.08-19.08-4.37-22.1-6l-.26-.14-.34-.18c-15.5-8.72-27.4-25.9-27.74-44.73A49.54,49.54,0,0,1,111.9,47.05l.5,0c1-.11,2-.18,3-.23,11.64.15,27.07,2.81,27.07,2.81a59.11,59.11,0,0,0-10.34-5,56.77,56.77,0,0,1,18.31-25.45A55.28,55.28,0,0,1,183.82,7.29a55.87,55.87,0,0,1,49.42,28.16h.07c7.36,10.78,9.25,25.61,9.25,25.61a43,43,0,0,0,.95-10.76c0-1,0-1.89-.09-2.78l.5-.15a49.26,49.26,0,0,1,60,46.49A49.48,49.48,0,0,1,255.53,143.34Z"/><path class="cls-1" d="M168.87,270.34l1-.51a5.78,5.78,0,0,0,.81-.51l2.3-1.7-3.12,1.05-.64.23a3.7,3.7,0,0,1-1.32.15l0-.06,0-.05a11.35,11.35,0,0,0,.81-9.59l0-.13c-.07-.21-.09-.56,0-.65s.28-.07.77.16c.26.14.52.28.76.43l.31.17,1,.62c.89.57,1.57,1,2.18,1.49a24.18,24.18,0,0,1,2.09,1.67l.87.67a41.26,41.26,0,0,0-4.33-5c-.77-.62-1.5-1.16-2.23-1.65a24.6,24.6,0,0,0-16-4.52,25.81,25.81,0,0,0-11.23,4l-.77.5s-4.34,2.89-8.45,1.7l-.87-.25.5.75c.14.21,3.37,5.08,4.72,6.58a25.31,25.31,0,0,0,1.76,1.91,21.26,21.26,0,0,0,2,1.68,24.22,24.22,0,0,0,2.15,1.44,23.46,23.46,0,0,0,2.3,1.18c.64.27,1.27.51,1.88.72l1.68.48a7.64,7.64,0,0,1,1.18.34,4.18,4.18,0,0,0-1,.17c-.52.06-1,.06-1.55.07-1.45,0-2.9-.05-4.35,0l-2.88,0,2.81.62a33.87,33.87,0,0,0,18.16-.87,25.69,25.69,0,0,0,3.34-1.41C166.63,271.67,167.71,270.94,168.87,270.34Zm-21.4-.94a21.65,21.65,0,0,1-1.94-1.09,18.73,18.73,0,0,1-1.81-1.31,19.4,19.4,0,0,1-1.67-1.47,21.85,21.85,0,0,1-1.48-1.66c-.2-.24.12-1.07.44-1.61,3-2.22,5.87-3.85,6.31-3.58a.49.49,0,0,1,0,.26,11.36,11.36,0,0,0-.84,4.53,11.51,11.51,0,0,0,2.08,6.4C148.2,269.73,147.84,269.57,147.47,269.4ZM161.65,271l-.9.14c-.75.12-1.51.19-2.29.24s-1.56.05-2.29.05l-.93,0A8.58,8.58,0,0,1,150,260.26c.64-.62,6.53-6.09,14.1-3a8.49,8.49,0,0,1,2.41,5.81A8.6,8.6,0,0,1,161.65,271Z"/><path class="cls-1" d="M148.37,252.46c.28-.06.6-.12,1-.17h0l.5-.08.59-.09.77-.08c.53-.06,1.07-.12,1.62-.13l.46,0,.79,0,1.32,0a14.42,14.42,0,0,1,1.71.09l.9.08c.55.06,1.12.15,1.67.23l.92.14,2.49.56,2.33.71a7.52,7.52,0,0,1,.8.27l1.21.46.59.22a10.62,10.62,0,0,1,1.11.46l1.32.59,1.16.5,2.51,1-2.19-1.6s-.37-.27-1-.73l-1.2-.8a11.38,11.38,0,0,0-1.44-.83l-.25-.13-.58-.3a13.89,13.89,0,0,0-1.45-.69l-.56-.22c-.58-.23-1.17-.46-1.82-.68l-.87-.25c-.56-.16-1.14-.32-1.75-.46l-.93-.16c-.6-.11-1.21-.21-1.85-.28l-.91-.07a14.68,14.68,0,0,0-1.87-.07c-.47,0-.92,0-1.39,0l-.88.08-.44,0a14.91,14.91,0,0,0-1.83.27l-.7.13-.3.08c-.68.16-1.31.32-1.89.52l-1,.33-.83.34c-.44.18-.8.37-1.13.53l-.22.12a8.8,8.8,0,0,0-1.11.67l-2.19,1.59,2.5-1A26,26,0,0,1,148.37,252.46Z"/><path class="cls-1" d="M157.86,257.68a5.59,5.59,0,0,0,.2,11.17l.38,0,.52,0-.26-.46a2.29,2.29,0,0,1-.34-1.17,2.42,2.42,0,0,1,2.38-2.48,2.39,2.39,0,0,1,1.82.79l.35.39.2-.49a5.69,5.69,0,0,0,.4-2.2A5.57,5.57,0,0,0,157.86,257.68Z"/><path class="cls-1" d="M229.3,273.21l1-.25,2.79-.72-2.88.07-1.08.05-1.22.08a9.18,9.18,0,0,1-.94,0l-.6,0-.59,0h-.16a9.81,9.81,0,0,1-2.33-.15c.2.05.91-.32,1.13-.38a23.18,23.18,0,0,0,12.88-9.78l.15-.22c1-1.51,2-3,2.92-4.59l.47-.77-.85.29c-4.06,1.33-8.47-1.37-8.51-1.39a23.92,23.92,0,0,0-16.08-4,26.07,26.07,0,0,0-11.69,4.84,25.43,25.43,0,0,0-5.67,5.81c-.24.32-.48.65-.71,1l.7-.47a27.18,27.18,0,0,1,6.17-4.6c.49-.25.72-.24.78-.19a.85.85,0,0,1,0,.65l0,.1a11.36,11.36,0,0,0,1.15,9.57l0,.07,0,.05a3.4,3.4,0,0,1-1.32-.1l-3-.72a25.72,25.72,0,0,0,4.35,2.71,30.44,30.44,0,0,0,8.5,3.15,34.7,34.7,0,0,0,9.15.62,24,24,0,0,0,4.22-.55Zm-2.84-15.69a.57.57,0,0,1,0-.27c.44-.28,3.39,1.23,6.45,3.34.32.51.68,1.35.49,1.6a20.62,20.62,0,0,1-1.42,1.7,19.89,19.89,0,0,1-5.27,4.06c-.36.19-.72.36-1.07.52a11.42,11.42,0,0,0,1.85-6.47A11.29,11.29,0,0,0,226.46,257.52ZM219,270.22l-.93.07c-.73,0-1.51.06-2.29,0s-1.55-.06-2.32-.16c-.3,0-.59-.07-.88-.11a8.58,8.58,0,0,1-2.92-13.59c7.44-3.4,13.54,1.85,14.19,2.45a8.48,8.48,0,0,1,.66,3.13A8.58,8.58,0,0,1,219,270.22Z"/><path class="cls-1" d="M228.64,250.88l-.21-.1c-.33-.16-.71-.33-1.14-.49l-.62-.23-1.19-.37a19.32,19.32,0,0,0-1.92-.46l-.32-.07-.68-.1a15.27,15.27,0,0,0-1.83-.21l-.45,0-.9-.05-1.36,0a16.63,16.63,0,0,0-1.88.14l-.93.1c-.62.09-1.23.22-1.81.35l-1,.2c-.59.16-1.15.34-1.71.52l-.89.28c-.61.24-1.2.5-1.76.74l-.55.24a14.7,14.7,0,0,0-1.43.74l-.58.33-.24.14a11.27,11.27,0,0,0-1.4.87l-1.18.85-1,.77-2.13,1.67,2.47-1.11,1.15-.54,1.29-.63h0a11.11,11.11,0,0,1,1.08-.49l.58-.24,1.2-.51a6.31,6.31,0,0,1,.8-.3l2.27-.78,2.47-.65.93-.18c.55-.11,1.11-.22,1.66-.29l.9-.11a12.5,12.5,0,0,1,1.71-.16l1.3-.07h1.27c.55,0,1.09,0,1.62.07l.75,0,.61.08.5.06a9.72,9.72,0,0,1,1,.14,27.28,27.28,0,0,1,4.34,1L232,253l-2.23-1.5A10,10,0,0,0,228.64,250.88Z"/><path class="cls-1" d="M215.83,256.62a5.59,5.59,0,0,0,.2,11.17h.21l.61,0-.27-.46a2.47,2.47,0,0,1-.34-1.19,2.44,2.44,0,0,1,2.38-2.48,2.4,2.4,0,0,1,1.87.86l.35.4.2-.49a5.41,5.41,0,0,0,.44-2.27A5.58,5.58,0,0,0,215.83,256.62Z"/><path class="cls-1" d="M275.85,310.48c-.14-.75-.33-1.49-.47-2.26s-.3-1.54-.46-2.32c-.33-1.55-.61-3.15-.92-4.73s-.57-3.18-.89-4.75l-.83-4.6c-.54-3-1-5.8-1.48-8.2-.21-1.2-.41-2.3-.6-3.28s-.35-1.84-.48-2.54-.26-1.26-.32-1.64l-.12-.58s-.12.82-.21,2.26c-.05.72-.1,1.59-.12,2.6s-.06,2.13,0,3.37l0,1.92c0,.67.07,1.35.1,2.06.06,1.41.2,2.89.34,4.43s.34,3.12.56,4.72.49,3.23.81,4.85.63,3.23,1,4.8.77,3.12,1.22,4.6l.65,2.18c.23.71.47,1.4.71,2.07.48,1.33.92,2.59,1.42,3.73s.93,2.18,1.34,3.09.86,1.68,1.19,2.32c.67,1.28,1.09,2,1.09,2s-.15-.82-.48-2.21c-.16-.7-.36-1.55-.61-2.51s-.44-2.07-.73-3.25-.53-2.48-.84-3.84S276.16,312,275.85,310.48Z"/><path class="cls-1" d="M176.25,189.85l-1.08,2.59-5.59,13.87c-2,5-4.08,10.09-5.62,13.87-.74,1.91-1.37,3.52-1.79,4.65s-.63,1.8-.63,1.8.46-.52,1.2-1.48c.38-.47.83-1.06,1.31-1.75s1-1.46,1.61-2.34,1.15-1.82,1.76-2.85,1.2-2.12,1.81-3.27,1.2-2.35,1.75-3.59,1.11-2.52,1.65-3.79,1-2.58,1.44-3.87.86-2.57,1.23-3.81.7-2.46,1-3.62.53-2.25.72-3.27.35-2,.47-2.81.22-1.56.28-2.17c.13-1.21.16-1.9.16-1.9s-.31.62-.79,1.74Z"/><path class="cls-1" d="M111.47,200.47c-.28.88-.6,1.88-.91,3s-.62,2.29-.93,3.56-.6,2.61-.9,4-.55,2.83-.79,4.31-.45,3-.66,4.47-.36,3-.48,4.5-.24,2.95-.32,4.37c-.14,2.84-.18,5.5-.12,7.78,0,1.14.07,2.18.13,3.11s.11,1.73.18,2.39c.12,1.33.23,2.09.23,2.09s.18-.75.42-2.06.57-3.17.94-5.4c.17-1.12.36-2.33.55-3.61s.38-2.62.58-4,.38-2.83.58-4.29.38-2.95.57-4.44.38-3,.56-4.43.36-2.91.51-4.31.31-2.75.45-4,.26-2.51.37-3.63c.21-2.26.36-4.14.45-5.47s.1-2.09.1-2.09-.29.7-.74,2C112,198.82,111.74,199.58,111.47,200.47Z"/><path class="cls-1" d="M95.65,59.69c-.55.31-1.22.69-2,1.17s-1.57,1-2.44,1.67-1.78,1.39-2.71,2.24a36.77,36.77,0,0,0-2.8,2.79,39.39,39.39,0,0,0-2.64,3.35,36.27,36.27,0,0,0-2.25,3.83c-.33.72-.6,1.28-.89,2s-.52,1.42-.75,2.12a26.92,26.92,0,0,0-.92,4.23,24.26,24.26,0,0,0-.19,4,21.57,21.57,0,0,0,.42,3.58c.12.55.24,1.07.38,1.55s.31.94.46,1.36.32.81.48,1.16a10.45,10.45,0,0,0,.48,1A12.61,12.61,0,0,0,81.08,97l.29.43L81.26,97c-.08-.33-.21-.8-.32-1.41s-.23-1.35-.35-2.19L80.48,92c0-.47,0-1-.06-1.48a29.55,29.55,0,0,1,.17-3.3,30.28,30.28,0,0,1,.59-3.6,35.68,35.68,0,0,1,1.07-3.74c.24-.62.47-1.25.72-1.84s.58-1.29.84-1.85c.6-1.21,1.27-2.39,2-3.53s1.47-2.22,2.23-3.26,1.54-2,2.32-2.92,1.52-1.76,2.22-2.55l1.95-2.12L96,60.21c.87-.9,1.36-1.43,1.36-1.43l-.46.23C96.64,59.17,96.19,59.37,95.65,59.69Z"/><path class="cls-1" d="M285.21,121.65c-.86,1.09-1.82,2-2.72,3-.46.47-.95.89-1.4,1.35l-.68.66c-.23.21-.47.4-.7.6l-1.36,1.14c-.44.38-.89.69-1.32,1l-1.23.92-1.16.77c-.36.24-.7.46-1,.69s-.62.37-.89.53c-1.09.64-1.72,1-1.72,1s.71-.18,1.93-.56c.31-.1.66-.19,1-.32s.74-.31,1.16-.49l1.32-.56c.46-.21.91-.48,1.4-.74s1-.53,1.52-.85l1.55-1c.26-.18.54-.35.8-.55l.79-.61c.52-.42,1.07-.84,1.59-1.3a35.25,35.25,0,0,0,3.05-3.06,41.4,41.4,0,0,0,2.79-3.49,40.39,40.39,0,0,0,2.31-3.82,37.35,37.35,0,0,0,1.82-3.93c.25-.65.46-1.31.67-2l.3-1c.1-.32.16-.64.24-1,.15-.62.31-1.22.44-1.81s.18-1.17.27-1.72.18-1.08.22-1.59.05-1,.08-1.45,0-.87.05-1.26,0-.74,0-1.06c-.06-1.28-.13-2-.13-2s-.16.72-.39,2c-.06.31-.11.66-.19,1s-.2.77-.3,1.19L295,102.9l-.45,1.48c-.16.51-.29,1.05-.49,1.59s-.4,1.1-.61,1.67c-.11.29-.2.58-.32.87l-.39.87c-.27.58-.5,1.19-.78,1.79-.61,1.17-1.18,2.42-1.91,3.6s-1.48,2.37-2.23,3.55S286.13,120.61,285.21,121.65Z"/><path class="cls-2" d="M64.54,459.18a15.2,15.2,0,0,1-.75,5.33A13.41,13.41,0,0,1,61.33,469a12.63,12.63,0,0,1-4,3.12,12.44,12.44,0,0,1-5.27,1.27,13.28,13.28,0,0,1-4.78-.67,11.36,11.36,0,0,1-3.83-2.17A10.24,10.24,0,0,1,40.88,467a12,12,0,0,1-1-4.7c0-.36,0-.8,0-1.33a7.14,7.14,0,0,1,.2-1.54,3.8,3.8,0,0,1,.57-1.27,1.4,1.4,0,0,1,1.14-.55,4.32,4.32,0,0,1,1.35.21,6.09,6.09,0,0,1,1.4.62,4.17,4.17,0,0,1,1.11,1,2.1,2.1,0,0,1,.48,1.26l.06,2.19a6.32,6.32,0,0,0,1.55,4.22,5.12,5.12,0,0,0,4.16,1.52,5.92,5.92,0,0,0,3.23-1,7.09,7.09,0,0,0,2.15-2.31,10,10,0,0,0,1.16-3.08,14.07,14.07,0,0,0,.29-3.33,15.23,15.23,0,0,0-1.49-6.13A35,35,0,0,0,53.75,447q-2.05-2.81-4.45-5.5c-1.59-1.79-3.08-3.58-4.44-5.36a34.69,34.69,0,0,1-3.44-5.35,12.73,12.73,0,0,1-1.48-5.53,7.91,7.91,0,0,1,3.19-6.86,10.68,10.68,0,0,1,3.43-1.69,15.78,15.78,0,0,1,4-.64,13.73,13.73,0,0,1,4.57.58,9.35,9.35,0,0,1,3.47,2,9,9,0,0,1,2.24,3.29,13,13,0,0,1,.87,4.5c0,.26,0,.57,0,.95a5.21,5.21,0,0,1-.15,1.12,2.76,2.76,0,0,1-.43,1,1,1,0,0,1-.82.42,3.46,3.46,0,0,1-1.53-.34,6.59,6.59,0,0,1-1.06-.63,2.49,2.49,0,0,1-.64-.7,3,3,0,0,1-.37-.88,9.92,9.92,0,0,1-.23-1.2,19.41,19.41,0,0,0-.56-2.45,5.23,5.23,0,0,0-1-1.83,4,4,0,0,0-1.62-1.12,6.59,6.59,0,0,0-2.55-.34,9.5,9.5,0,0,0-2.1.29,4.72,4.72,0,0,0-1.72.81,3.82,3.82,0,0,0-1.13,1.41,4.6,4.6,0,0,0-.37,2.12,9,9,0,0,0,.88,3.54,23.46,23.46,0,0,0,2.16,3.64q1.32,1.86,3,3.8c1.12,1.29,2.26,2.63,3.44,4s2.33,2.8,3.45,4.27a41.73,41.73,0,0,1,3,4.59,28.45,28.45,0,0,1,2.19,5A18.7,18.7,0,0,1,64.54,459.18Z"/><path class="cls-2" d="M82,463.69a5.05,5.05,0,0,1-.55,2.37,9.29,9.29,0,0,1-1.54,2.27A8.61,8.61,0,0,1,77.73,470a5.49,5.49,0,0,1-2.49.72,6.29,6.29,0,0,1-3.09-.61,7.18,7.18,0,0,1-2.29-1.82,10.24,10.24,0,0,1-1.62-2.67,20,20,0,0,1-1-3.09,25.41,25.41,0,0,1-.57-3.21c-.12-1.07-.2-2-.22-2.93s0-1.65,0-2.69a29.27,29.27,0,0,1,.36-3.23,22.56,22.56,0,0,1,.79-3.32,12.73,12.73,0,0,1,1.33-3,7.31,7.31,0,0,1,2-2.15,4.86,4.86,0,0,1,2.72-.87,4.74,4.74,0,0,1,2.19.42,5,5,0,0,1,1.67,1.26,6,6,0,0,1,1.08,1.84,7,7,0,0,1,.43,2.19,8.93,8.93,0,0,1-.59,3.24,17.67,17.67,0,0,1-1.66,3.42,17.37,17.37,0,0,1-2.33,3,11.26,11.26,0,0,1-2.61,2.07q.09.68.36,2a21.76,21.76,0,0,0,.7,2.57,11.09,11.09,0,0,0,1,2.21,1.57,1.57,0,0,0,1.33.91,1,1,0,0,0,.66-.25,2.4,2.4,0,0,0,.49-.62,4.36,4.36,0,0,0,.37-.85c.11-.3.21-.6.3-.88l.21-.54a.71.71,0,0,0,.09-.15l0-.12c.17-.33.33-.64.49-.92a2.16,2.16,0,0,1,.68-.74h0a.58.58,0,0,1,.32-.18l.32,0a1.88,1.88,0,0,1,.91.24,4.23,4.23,0,0,1,.93.63,3.62,3.62,0,0,1,.71.86A1.83,1.83,0,0,1,82,463.69Zm-8-16.47a7.57,7.57,0,0,0-.06-.79,1.9,1.9,0,0,0-.21-.72,6.91,6.91,0,0,0-.88,1.57,12.78,12.78,0,0,0-.61,1.87,18.79,18.79,0,0,0-.37,2c-.1.66-.16,1.27-.2,1.83a13.83,13.83,0,0,0,1.67-2.72A6.61,6.61,0,0,0,74,447.22Z"/><path class="cls-2" d="M93.64,471.38a1.39,1.39,0,0,1-.24.88,2.11,2.11,0,0,1-.65.57,3.84,3.84,0,0,1-.86.33,4.81,4.81,0,0,1-.85.12,3.75,3.75,0,0,1-2.33-.69,7.19,7.19,0,0,1-1.77-1.9A11.71,11.71,0,0,1,85.69,468a31.37,31.37,0,0,1-.85-3c-.23-1-.42-2-.54-2.94s-.24-1.76-.31-2.44q-.43-3.51-.68-7.14c-.17-2.42-.28-4.82-.35-7.19q-.3-9.74.1-19.3c0-.1,0-.21,0-.34a2.41,2.41,0,0,0,0-.38c0-.53,0-1.14,0-1.84s0-1.38,0-2.06.07-1.31.12-1.88a4.06,4.06,0,0,1,.21-1.2v0a1.81,1.81,0,0,1,.39-.8,1.3,1.3,0,0,1,.9-.3,3.28,3.28,0,0,1,2.34.84,3,3,0,0,1,1,2.25,5.61,5.61,0,0,1,0,.58,5.09,5.09,0,0,1,0,.56c0,.17,0,.34,0,.51a3.07,3.07,0,0,0,0,.43q-.07,1.48-.09,2.94c0,1,0,2,0,2.94-.06,2.18-.09,4.34-.09,6.51s0,4.33.1,6.53c0,.93.08,2.16.15,3.67s.17,3.16.3,4.94.3,3.61.49,5.5.43,3.69.71,5.4.6,3.25,1,4.63a12.25,12.25,0,0,0,1.21,3.18,2.34,2.34,0,0,1,.68.46,4,4,0,0,1,.59.7,5,5,0,0,1,.44.82A2.4,2.4,0,0,1,93.64,471.38Z"/><path class="cls-2" d="M107.86,422.74a.83.83,0,0,1-.34.71,2.64,2.64,0,0,1-.84.48,5.06,5.06,0,0,1-1,.28,6.38,6.38,0,0,1-.76.1,4.66,4.66,0,0,1-1.64-.24,5.4,5.4,0,0,0-1.63-.27,4.41,4.41,0,0,0-2.19,1.58A8.44,8.44,0,0,0,98,428.84a25.55,25.55,0,0,0-.48,5.62,60.5,60.5,0,0,0,.74,8.13c1.58-.38,3.06-.71,4.42-1a21.32,21.32,0,0,1,3.19-.46,1.45,1.45,0,0,1,1.27.46,2.15,2.15,0,0,1,.38,1.24,6.91,6.91,0,0,1-.11,1.4,1.73,1.73,0,0,1-.77,1.09l-7.87,1.45c.15,1.05.29,2.12.41,3.19s.25,2.12.38,3.15c.51,3.27.93,5.95,1.29,8s.64,3.75.87,5,.4,2.14.53,2.68.23.9.28,1.09.09.26.11.24,0,0,0,.08a1.25,1.25,0,0,1-.46,1.13,2.1,2.1,0,0,1-1.17.35,7.33,7.33,0,0,1-1.12-.06,6.67,6.67,0,0,1-1.16-.25,3.45,3.45,0,0,1-1-.5,1.87,1.87,0,0,1-.67-.81c-.25-1.71-.54-3.34-.86-4.9s-.62-3.18-.87-4.86q-.39-3-.86-6.34t-.78-6.42a1,1,0,0,1-.3,0,1.92,1.92,0,0,0-.34,0,1.71,1.71,0,0,1-1-.26,1.18,1.18,0,0,1-.43-1,3,3,0,0,1,.39-1.6,2.06,2.06,0,0,1,1.27-1c-.11-1.38-.25-2.92-.4-4.61s-.24-3.41-.27-5.16a35.94,35.94,0,0,1,.28-5.13,14.08,14.08,0,0,1,1.29-4.43,8.36,8.36,0,0,1,2.71-3.18,8.27,8.27,0,0,1,4.54-1.31,10.51,10.51,0,0,1,1.62.14,12.17,12.17,0,0,1,2.12.53,7.16,7.16,0,0,1,1.86.91A1.59,1.59,0,0,1,107.86,422.74Z"/><path class="cls-2" d="M117.74,450a1.5,1.5,0,0,1-.13.66,4.88,4.88,0,0,1-.27.71,1.14,1.14,0,0,1-.81.67,3.57,3.57,0,0,1-.75.09l-6.86.21h-.45l-.53-.06a1.27,1.27,0,0,1-.46-.19.5.5,0,0,1-.2-.41,1.54,1.54,0,0,1,.4-1.09,1.82,1.82,0,0,1,1-.62,8.69,8.69,0,0,1,1-.12c.34,0,.67-.05,1-.1,1-.07,1.91-.16,2.87-.25s1.93-.14,2.93-.17h.39a1.4,1.4,0,0,1,.41.06.59.59,0,0,1,.3.21A.62.62,0,0,1,117.74,450Z"/><path class="cls-2" d="M124,470a6.19,6.19,0,0,1-1.24-.11,4.44,4.44,0,0,1-1.26-.46,3.25,3.25,0,0,1-1-.82,2,2,0,0,1-.44-1.22c0-.7,0-1.41,0-2.1s.09-1.39.15-2.07v0l.15-2.55c0-.91.08-1.91.1-3s0-2.19,0-3.31,0-2.23,0-3.32,0-2.08,0-3c0-.53,0-1.07-.07-1.61s-.05-1.09-.07-1.65-.07-1-.09-1.6l0-1.65a3.56,3.56,0,0,1,.17-1.31c.13-.35.52-.53,1.18-.55a4.19,4.19,0,0,1,1.85.4,2.64,2.64,0,0,1,1.38,1.24h0a4.65,4.65,0,0,1,.32,1.33c.08.62.14,1.17.18,1.64.41-.67.88-1.37,1.4-2.12a16.39,16.39,0,0,1,1.7-2.08,9.76,9.76,0,0,1,2-1.6,4.48,4.48,0,0,1,2.25-.67,3.41,3.41,0,0,1,2.45.72,4.76,4.76,0,0,1,1.27,1.95,9,9,0,0,1,.49,2.53c.06.89.09,1.71.11,2.44v.3c0,.31,0,.6,0,.89a2.28,2.28,0,0,1-.13.8,1.14,1.14,0,0,1-.43.6,1.52,1.52,0,0,1-.89.26,5.43,5.43,0,0,1-1.29-.13,4.69,4.69,0,0,1-1.28-.48,3.59,3.59,0,0,1-1-.82,2,2,0,0,1-.49-1.18l0-.6a4.1,4.1,0,0,1,0-.61V444c0-.19,0-.38,0-.55a11.88,11.88,0,0,0-2.05,3.05,31.4,31.4,0,0,0-1.55,3.84,40.57,40.57,0,0,0-1.15,4.07c-.31,1.36-.58,2.59-.8,3.68v.11c0,.79-.08,1.56-.08,2.32v2.35c0,.91,0,1.83,0,2.77s-.06,1.84-.13,2.73a2,2,0,0,1-.4,1.13A1.53,1.53,0,0,1,124,470Z"/><path class="cls-2" d="M154.2,468a1.22,1.22,0,0,1-.35,1.05,1.7,1.7,0,0,1-1,.32,3.08,3.08,0,0,1-2.58-.87A6.11,6.11,0,0,1,149,466c-.09-.35-.18-.71-.26-1.08s-.17-.72-.23-1.07a3.24,3.24,0,0,0-.17-.68,3.84,3.84,0,0,1-.17-.71,21,21,0,0,1-1,2.32,13.2,13.2,0,0,1-1.47,2.25,8,8,0,0,1-1.9,1.7,4.57,4.57,0,0,1-2.34.72,3.79,3.79,0,0,1-2.3-.6,4.57,4.57,0,0,1-1.47-1.62,7.69,7.69,0,0,1-.78-2.19,12.86,12.86,0,0,1-.28-2.31,33.77,33.77,0,0,1,.34-5.6,50.11,50.11,0,0,1,1.24-6.06,51.6,51.6,0,0,1,1.95-5.86,28.09,28.09,0,0,1,2.5-4.94v0l.22-.34q.39-.58.93-1.26A1.64,1.64,0,0,1,145,438a1.59,1.59,0,0,1,1.27.59,4,4,0,0,1,.8,1.28,6.86,6.86,0,0,1,1.6.43,2.65,2.65,0,0,1,1,.67,2.09,2.09,0,0,1,.48,1,5.53,5.53,0,0,1,.15,1.19l0,.57a4.15,4.15,0,0,1,0,.61,5.52,5.52,0,0,0,0,.72l0,.76a5,5,0,0,0,.16,1c.1.4.21.81.32,1.24l.31,1.39c.15.73.28,1.56.4,2.49s.25,1.86.4,2.79.26,1.88.39,2.78.25,1.71.38,2.47l1.08,5.57.13.64c.06.33.12.63.2.91A4.3,4.3,0,0,1,154.2,468Zm-9.33-21.51a1.93,1.93,0,0,0,0-.24l-.09-.36a30.44,30.44,0,0,0-1.41,4.08,44.2,44.2,0,0,0-1,4.46c-.24,1.51-.41,3-.5,4.53a41.17,41.17,0,0,0-.08,4.26v.34a1,1,0,0,0,0,.3v0a13.69,13.69,0,0,0,1.46-3.74,48.69,48.69,0,0,0,1-4.84c.25-1.69.42-3.32.51-4.9S144.9,447.49,144.87,446.45Z"/><path class="cls-2" d="M160.49,436.39a1.32,1.32,0,0,1-.26.94,1.46,1.46,0,0,1-1,.31,8.17,8.17,0,0,1-1.07-.06,12.68,12.68,0,0,1-1.46-.24,4.82,4.82,0,0,1-1.31-.49,1,1,0,0,1-.57-.82c0-.1,0-.38.09-.85s.14-1,.24-1.51.18-1,.26-1.45a2.18,2.18,0,0,1,.18-.72v0a.82.82,0,0,1,.45-.4,2.35,2.35,0,0,1,.53-.09,6.87,6.87,0,0,1,.89.07,8.61,8.61,0,0,1,1.1.23,4.63,4.63,0,0,1,1,.41,1.23,1.23,0,0,1,.59.55,2.66,2.66,0,0,1,.15.81,5.84,5.84,0,0,1,0,.93c0,.1,0,.22,0,.36s0,.24,0,.32l0,.38c0,.12,0,.25.07.37s.05.27.07.42S160.48,436.21,160.49,436.39Zm2.31,30.14a1.66,1.66,0,0,1-.36,1.24,1.87,1.87,0,0,1-1.26.4,4.66,4.66,0,0,1-1-.09,7,7,0,0,1-1.09-.28,5.15,5.15,0,0,1-1-.49,2.13,2.13,0,0,1-.7-.66,4.44,4.44,0,0,1-.31-1.39c-.1-.78-.18-1.75-.25-2.91s-.15-2.46-.24-3.9-.15-2.89-.2-4.35-.11-2.89-.15-4.28l-.11-3.63-.09-2.92c0-.25,0-.5,0-.76a1.69,1.69,0,0,1,.13-.66,1.12,1.12,0,0,1,.4-.49,1.5,1.5,0,0,1,.81-.21,3,3,0,0,1,2.47.85,4.64,4.64,0,0,1,1,2.45q.26,2.31.42,4.59c.11,1.53.22,3.07.31,4.64.1,1.41.18,2.8.26,4.18s.2,2.74.37,4.1c0,.28.07.54.1.79a6.75,6.75,0,0,0,.14.76c.06.5.13,1,.2,1.49S162.78,466,162.8,466.53Z"/><path class="cls-2" d="M178.22,440a1,1,0,0,1-.3.77,2.86,2.86,0,0,1-.76.53,3.57,3.57,0,0,1-.92.31,4.48,4.48,0,0,1-.78.1,3.57,3.57,0,0,1-.87-.07q-.42-.07-.84-.18l-.8-.18a3,3,0,0,0-.8-.07,3.63,3.63,0,0,0-2.13.78,2.71,2.71,0,0,0-.72.86,2.15,2.15,0,0,0-.25,1.1,4.6,4.6,0,0,0,.43,1.79,11.18,11.18,0,0,0,1.06,1.77,19.5,19.5,0,0,0,1.5,1.79c.56.6,1.15,1.21,1.78,1.82l2.28,2.4a21.76,21.76,0,0,1,2.09,2.55,14.4,14.4,0,0,1,1.54,2.83,8.94,8.94,0,0,1,.67,3.17,6.5,6.5,0,0,1-.4,2.59,5.55,5.55,0,0,1-1.26,2,6.14,6.14,0,0,1-2,1.29,7.45,7.45,0,0,1-2.58.51,6.85,6.85,0,0,1-1.16-.11c-.52-.09-1.11-.22-1.78-.39s-1.34-.35-2-.56a17.77,17.77,0,0,1-1.92-.68,9.16,9.16,0,0,1-1.42-.75c-.38-.26-.57-.5-.57-.73a1.43,1.43,0,0,1,.39-.94,5.47,5.47,0,0,1,.95-.9,6.73,6.73,0,0,1,1.18-.69,2.8,2.8,0,0,1,1-.3,3,3,0,0,1,1.2.23q.63.24,1.29.57a16,16,0,0,0,1.48.63,3.84,3.84,0,0,0,1.54.26c.4,0,.63-.16.69-.44a4.65,4.65,0,0,0,.06-.95,6.78,6.78,0,0,0-.53-2.5,12.86,12.86,0,0,0-1.24-2.3,18,18,0,0,0-1.73-2.16l-2-2.08q-1-1-2-2.07a17.64,17.64,0,0,1-1.71-2.12,11.84,11.84,0,0,1-1.22-2.26,7,7,0,0,1-.52-2.48,5.94,5.94,0,0,1,.64-3,7.51,7.51,0,0,1,1.8-2.31,8.66,8.66,0,0,1,2.57-1.54,8.85,8.85,0,0,1,2.92-.6,8.47,8.47,0,0,1,1.52.17,12.1,12.1,0,0,1,2,.52,7.79,7.79,0,0,1,1.76.86A1.49,1.49,0,0,1,178.22,440Z"/><path class="cls-2" d="M186.31,435.61a1.28,1.28,0,0,1-.26.94,1.45,1.45,0,0,1-1,.31,8,8,0,0,1-1.06-.06,13.21,13.21,0,0,1-1.47-.24,4.45,4.45,0,0,1-1.3-.49,1,1,0,0,1-.57-.82,6.19,6.19,0,0,1,.08-.85c.06-.47.14-1,.24-1.51s.19-1,.26-1.44a2.36,2.36,0,0,1,.19-.73v0a.84.84,0,0,1,.44-.4,2.45,2.45,0,0,1,.53-.09,6.74,6.74,0,0,1,.89.07,8.76,8.76,0,0,1,1.11.23,5.17,5.17,0,0,1,1,.41,1.24,1.24,0,0,1,.58.55,3,3,0,0,1,.16.81c0,.34,0,.65,0,.93,0,.1,0,.22,0,.36s0,.24,0,.32a2.43,2.43,0,0,0,0,.38c0,.12,0,.25.07.38a3.86,3.86,0,0,1,.07.41C186.29,435.27,186.31,435.44,186.31,435.61Zm2.31,30.14a1.58,1.58,0,0,1-.36,1.24,1.87,1.87,0,0,1-1.26.4,5.16,5.16,0,0,1-1-.08,7,7,0,0,1-1.09-.29,5.43,5.43,0,0,1-1-.48,2.26,2.26,0,0,1-.7-.67,4.08,4.08,0,0,1-.31-1.39c-.1-.78-.19-1.75-.26-2.91s-.15-2.46-.23-3.9-.15-2.88-.21-4.35-.1-2.89-.15-4.28l-.11-3.63-.08-2.92c0-.25,0-.5,0-.76a1.89,1.89,0,0,1,.13-.66,1.2,1.2,0,0,1,.41-.49,1.44,1.44,0,0,1,.8-.21,3,3,0,0,1,2.48.85,4.75,4.75,0,0,1,1,2.45q.25,2.31.42,4.59c.11,1.53.21,3.07.31,4.64.09,1.41.18,2.8.26,4.18s.2,2.74.37,4.1c0,.28.06.54.1.79a6.71,6.71,0,0,0,.13.76c.07.5.13,1,.2,1.49A12.48,12.48,0,0,1,188.62,465.75Z"/><path class="cls-2" d="M198.32,466.93a1.17,1.17,0,0,1-.47,1.16,2.86,2.86,0,0,1-1.23.3,8.93,8.93,0,0,1-1.27-.06,4.2,4.2,0,0,1-1.18-.32,3.06,3.06,0,0,1-1-.69,2.55,2.55,0,0,1-.59-1.16,23.42,23.42,0,0,1-.74-4.43c-.09-1.45-.16-3-.21-4.49l-.14-4.65q-.09-3.18.07-6.62t.37-6.62a.66.66,0,0,1,0-.27,1.31,1.31,0,0,0,0-.23c0-.28,0-.58.08-.91a4,4,0,0,1,.22-.9,1.83,1.83,0,0,1,.48-.68,1.29,1.29,0,0,1,.84-.29,2.88,2.88,0,0,1,1.16.21,3.6,3.6,0,0,1,1,.62,3.14,3.14,0,0,1,.69.94,3,3,0,0,1,.28,1.17c0,.43,0,.9,0,1.42s0,1-.07,1.46c0,.13,0,.27,0,.42s0,.29,0,.42q.49-1.08,1.14-2.25a11.84,11.84,0,0,1,1.51-2.17,7.78,7.78,0,0,1,1.92-1.63,4.82,4.82,0,0,1,2.39-.68,4.12,4.12,0,0,1,1.82.29,2.88,2.88,0,0,1,1.19.93,3.81,3.81,0,0,1,.65,1.44,8.92,8.92,0,0,1,.22,1.77c0,.86,0,1.72,0,2.6s0,1.74-.07,2.6-.09,1.75-.11,2.61,0,1.74,0,2.62q0,1.59.18,3.27c.08,1.12.19,2.19.32,3.21s.27,1.94.43,2.76a17.82,17.82,0,0,0,.43,1.9c.11.37.24.81.36,1.3s.26,1,.39,1.5.24,1,.33,1.49a8,8,0,0,1,.15,1.28,1,1,0,0,1-.63,1.08,4.08,4.08,0,0,1-1.3.27c-.43,0-.91,0-1.46-.05a4.31,4.31,0,0,1-1.47-.39,2.67,2.67,0,0,1-1.09-1.56,12.32,12.32,0,0,1-.38-2l-.15-1c-.09-.6-.22-1.4-.37-2.38s-.31-2.06-.46-3.24-.28-2.41-.39-3.69-.19-2.51-.23-3.72,0-2.14,0-3.15.12-2,.19-3.07c0-.54.06-1,.07-1.3s0-.75.08-1.29a26.87,26.87,0,0,0-1.43,2.89c-.47,1.1-.92,2.24-1.34,3.43s-.79,2.34-1.12,3.47-.59,2.1-.77,2.94l-.2.84c-.12.41-.21.81-.29,1.22a5.13,5.13,0,0,0-.09,1.14c0,.45,0,1,.12,1.57s.15,1.15.24,1.68.2,1.27.32,1.92a4.14,4.14,0,0,0,.09.49c.06.28.12.6.18,1s.12.77.17,1.19S198.31,466.61,198.32,466.93Z"/><path class="cls-2" d="M231.71,456.72a2.51,2.51,0,0,1-.18.89,8.57,8.57,0,0,1-.5,1.08c-.2.37-.43.75-.67,1.14s-.47.73-.69,1l-.54.81-.54,1-.46.92c0,.5.09,1.05.16,1.62s.13,1.14.2,1.67c.36,2.59.68,5.23,1,7.93s.48,5.34.56,7.94a27.5,27.5,0,0,1-.21,4.23,12.14,12.14,0,0,1-1.16,3.9,7.77,7.77,0,0,1-2.47,2.9,7.32,7.32,0,0,1-4.13,1.22,6.22,6.22,0,0,1-3-.55,5.35,5.35,0,0,1-2-1.67,7.37,7.37,0,0,1-1.16-2.48,13.23,13.23,0,0,1-.43-3,28.21,28.21,0,0,1,.53-6.23,48.45,48.45,0,0,1,1.69-6.27,60.3,60.3,0,0,1,2.45-6.08c.93-2,1.87-3.89,2.82-5.72v-.17a2.12,2.12,0,0,0-.05-.32c-.31.62-.66,1.26-1.06,1.91a10.07,10.07,0,0,1-1.35,1.77,7.44,7.44,0,0,1-1.67,1.3,4.38,4.38,0,0,1-2.05.55,4.47,4.47,0,0,1-2.67-.67,5.63,5.63,0,0,1-1.74-1.89,8.7,8.7,0,0,1-1-2.54,14.26,14.26,0,0,1-.34-2.65,22.35,22.35,0,0,1,.08-2.84c.09-.94.19-1.85.32-2.74.2-1.42.48-3,.82-4.63a47.31,47.31,0,0,1,1.31-5,33.36,33.36,0,0,1,1.89-4.66,14.86,14.86,0,0,1,2.6-3.75l.29-.28a11.11,11.11,0,0,1,1.11-1,2.16,2.16,0,0,1,1.31-.51,1.19,1.19,0,0,1,.74.21,1.93,1.93,0,0,1,.57.57,3,3,0,0,1,.38.76,2.64,2.64,0,0,1,.16.79,1.83,1.83,0,0,1-.31,1h.07a3,3,0,0,1,3.17,2,2.41,2.41,0,0,1,.66.89,3.26,3.26,0,0,1,.24,1.13c0,.2,0,.42,0,.66a5.74,5.74,0,0,1-.09.67,5.74,5.74,0,0,0-.1.65,5.62,5.62,0,0,0,0,.57c0,.58,0,1.3.11,2.15s.11,1.76.19,2.69.16,1.85.25,2.74.17,1.67.24,2.32a3,3,0,0,1,.61-.62,1.42,1.42,0,0,1,.84-.29,2,2,0,0,1,1,.27,4.55,4.55,0,0,1,1,.73,5.18,5.18,0,0,1,.83.94A1.83,1.83,0,0,1,231.71,456.72Zm-10.89-15.29c0-.15,0-.31,0-.49a3,3,0,0,1,.08-.57l-.26.35-.55.66a4.6,4.6,0,0,0-.47.66,14.59,14.59,0,0,0-1.61,3.78,41.3,41.3,0,0,0-1.09,4.84c-.27,1.69-.47,3.35-.59,5s-.15,3-.12,4.17q0,.87.09,1.74a5.26,5.26,0,0,0,.43,1.69,5.59,5.59,0,0,0,.84-1.25q.31-.68.6-1.41a25.44,25.44,0,0,0,1.31-4.36c.35-1.65.63-3.35.83-5.1s.34-3.46.41-5.15S220.84,442.77,220.82,441.43Zm4.1,40.36c0-1.72-.14-3.33-.26-4.83s-.28-3.1-.48-4.82c-.43,1.1-.85,2.28-1.28,3.55s-.8,2.54-1.12,3.82-.56,2.56-.75,3.83a20.71,20.71,0,0,0-.24,3.61v.27c0,.58.08,1.2.17,1.87a2.87,2.87,0,0,0,.77,1.62h.42a1.75,1.75,0,0,0,1.25-.55,4,4,0,0,0,.81-1.33,8.45,8.45,0,0,0,.48-1.8,16.68,16.68,0,0,0,.21-2c0-.66,0-1.28,0-1.86S224.93,482.14,224.92,481.79Z"/><path class="cls-2" d="M274.89,464.66a.89.89,0,0,1-.43.77,3.82,3.82,0,0,1-1.07.53,6.79,6.79,0,0,1-1.24.3,8,8,0,0,1-.92.11,4.87,4.87,0,0,1-1.24-.1,5.6,5.6,0,0,1-1.13-.44,6,6,0,0,1-.92-.94c-.48-.55-1.09-1.27-1.81-2.16l-2.44-3c-.9-1.14-1.84-2.3-2.79-3.5s-1.91-2.39-2.84-3.59l-2.58-3.3c-.79-1-1.47-1.87-2-2.63s-1-1.28-1.2-1.57l-.22.08q.36,4.5.85,9a77.31,77.31,0,0,0,1.5,8.84l.28.94a3.75,3.75,0,0,1,.16,1,1.08,1.08,0,0,1-.53,1.13,3,3,0,0,1-1.25.28c-.25,0-.55,0-.91,0a7.24,7.24,0,0,1-1.1-.12A6.21,6.21,0,0,1,250,466a1.91,1.91,0,0,1-.75-.41,2,2,0,0,1-.69-.93,11.74,11.74,0,0,1-.28-1.16,145.34,145.34,0,0,1-1.85-15.24q-.51-7.67-.74-15.31c-.07-2.22-.12-4.41-.16-6.55s-.07-4.33-.08-6.56a1.71,1.71,0,0,1-.87-.27,3.12,3.12,0,0,1-.72-.64,3.49,3.49,0,0,1-.49-.82,2.24,2.24,0,0,1-.2-.85,1.82,1.82,0,0,1,.18-.84,3,3,0,0,1,.51-.77,6.15,6.15,0,0,1,.68-.67,7,7,0,0,1,.67-.51l0-.68c0-.25,0-.55,0-.87a3.61,3.61,0,0,1,.12-.94,1.62,1.62,0,0,1,.42-.73,1.28,1.28,0,0,1,.9-.31,5,5,0,0,1,1.6.22,3,3,0,0,1,1.39.9,16,16,0,0,1,5.95-1.31,11.47,11.47,0,0,1,5.07.94,12.28,12.28,0,0,1,4,2.84,13.37,13.37,0,0,1,2.6,4.2,14.81,14.81,0,0,1,1,5,14.62,14.62,0,0,1-.9,5.54,23.47,23.47,0,0,1-2.61,5.14,27.24,27.24,0,0,1-3.75,4.49,35.84,35.84,0,0,1-4.3,3.6c2.46,3.08,5,6.14,7.49,9.15s5.12,6,7.76,9l.73.77c.32.35.65.72,1,1.13a13.18,13.18,0,0,1,.88,1.16A2,2,0,0,1,274.89,464.66Zm-12.31-41.32a9.76,9.76,0,0,0-.58-2.9,9.58,9.58,0,0,0-1.49-2.7,7.77,7.77,0,0,0-2.24-2,5.25,5.25,0,0,0-2.84-.71,8.78,8.78,0,0,0-2.47.43,15.11,15.11,0,0,0-2.34,1q.24,5.64.47,11.28c.15,3.76.33,7.52.51,11.28l.69.06a23.21,23.21,0,0,0,3.8-2.88,23.83,23.83,0,0,0,3.33-3.82,19.92,19.92,0,0,0,2.35-4.41A12.3,12.3,0,0,0,262.58,423.34Z"/><path class="cls-2" d="M289.91,448.82a39.3,39.3,0,0,1-.35,6.59,18.31,18.31,0,0,1-2.06,6.26,14.51,14.51,0,0,1-1.17,1.72,10.43,10.43,0,0,1-1.45,1.52,7.28,7.28,0,0,1-1.74,1.12,5.36,5.36,0,0,1-2,.45,5.29,5.29,0,0,1-2.92-.68,7.61,7.61,0,0,1-2.18-2,12,12,0,0,1-1.56-2.83,20.62,20.62,0,0,1-1-3.27c-.25-1.11-.43-2.2-.56-3.26s-.19-2-.21-2.8,0-1.9,0-3a32.6,32.6,0,0,1,.3-3.34,30,30,0,0,1,.65-3.4,16.92,16.92,0,0,1,1.14-3.16,12.53,12.53,0,0,1,1.74-2.67,8.15,8.15,0,0,1,2.41-1.91v0a5.2,5.2,0,0,1,2.4-.72,1.93,1.93,0,0,1,1.18.29,1.22,1.22,0,0,1,.42,1.07,5.41,5.41,0,0,1,3.43,1.9,12.12,12.12,0,0,1,2.1,3.73,22.1,22.1,0,0,1,1.08,4.4A36.17,36.17,0,0,1,289.91,448.82Zm-8.84-9.21a1.78,1.78,0,0,1-1.23-.45,11.91,11.91,0,0,0-1.13,2.55,20.93,20.93,0,0,0-.69,2.94,28.1,28.1,0,0,0-.31,3c0,1,0,2,0,2.85,0,.73.09,1.67.2,2.82a30.08,30.08,0,0,0,.54,3.45,18.47,18.47,0,0,0,1,3.23,5,5,0,0,0,1.6,2.18,5.15,5.15,0,0,0,1.89-2.23,15.91,15.91,0,0,0,1.13-3.31,23.54,23.54,0,0,0,.51-3.62c.08-1.22.11-2.25.08-3.11,0-.63-.08-1.45-.19-2.46a30.87,30.87,0,0,0-.47-3.07,17.78,17.78,0,0,0-.83-2.92,5.09,5.09,0,0,0-1.25-2A2.78,2.78,0,0,1,281.07,439.61Z"/><path class="cls-2" d="M305.07,436.12a1,1,0,0,1-.3.77,2.88,2.88,0,0,1-.76.54,4,4,0,0,1-.92.31,5.61,5.61,0,0,1-.77.1,4.19,4.19,0,0,1-.88-.07l-.84-.18-.8-.19a3.46,3.46,0,0,0-.8-.07,3.83,3.83,0,0,0-1.13.22,3.74,3.74,0,0,0-1,.56,2.83,2.83,0,0,0-.72.86,2.16,2.16,0,0,0-.25,1.11,4.57,4.57,0,0,0,.44,1.78,10.28,10.28,0,0,0,1.05,1.77,21.33,21.33,0,0,0,1.5,1.8c.56.6,1.15,1.21,1.78,1.82l2.29,2.39a21.67,21.67,0,0,1,2.08,2.55,15.07,15.07,0,0,1,1.55,2.84,8.88,8.88,0,0,1,.66,3.16,6.69,6.69,0,0,1-.39,2.59,5.53,5.53,0,0,1-1.27,2,5.79,5.79,0,0,1-2,1.29,7.46,7.46,0,0,1-2.58.52,6.13,6.13,0,0,1-1.16-.12c-.52-.08-1.11-.21-1.77-.38s-1.35-.36-2.05-.56a16.8,16.8,0,0,1-1.91-.69,7.51,7.51,0,0,1-1.43-.75q-.56-.37-.57-.72a1.41,1.41,0,0,1,.39-.94,5.93,5.93,0,0,1,1-.9,6.36,6.36,0,0,1,1.17-.7,2.8,2.8,0,0,1,1-.3,3.15,3.15,0,0,1,1.2.23c.43.17.85.36,1.29.57s1,.45,1.48.64a3.87,3.87,0,0,0,1.54.25c.4,0,.63-.15.69-.43a4.65,4.65,0,0,0,.07-.95,7.26,7.26,0,0,0-.53-2.51,13.5,13.5,0,0,0-1.25-2.29,18.9,18.9,0,0,0-1.73-2.17c-.65-.7-1.31-1.39-2-2.08s-1.34-1.37-2-2.06a18.55,18.55,0,0,1-1.71-2.13,11.77,11.77,0,0,1-1.22-2.25,6.92,6.92,0,0,1-.51-2.49,5.85,5.85,0,0,1,.63-3,7.76,7.76,0,0,1,1.8-2.31A8.63,8.63,0,0,1,296,434a8.85,8.85,0,0,1,2.92-.6,8.16,8.16,0,0,1,1.52.16,12.13,12.13,0,0,1,2,.53,8.07,8.07,0,0,1,1.77.85A1.47,1.47,0,0,1,305.07,436.12Z"/><path class="cls-2" d="M313.16,431.79a1.24,1.24,0,0,1-.25.93,1.49,1.49,0,0,1-1,.32c-.22,0-.58,0-1.06-.06a13.21,13.21,0,0,1-1.47-.24,4.76,4.76,0,0,1-1.3-.5,1,1,0,0,1-.57-.81,5.43,5.43,0,0,1,.09-.86c.06-.47.14-1,.23-1.5s.19-1,.26-1.45a2.58,2.58,0,0,1,.19-.73v0a.86.86,0,0,1,.44-.39,1.69,1.69,0,0,1,.53-.09,4.41,4.41,0,0,1,.89.07,8.76,8.76,0,0,1,1.11.23,5.16,5.16,0,0,1,1,.4,1.2,1.2,0,0,1,.58.55,2.62,2.62,0,0,1,.16.81c0,.34,0,.65,0,.93,0,.1,0,.22,0,.36s0,.25,0,.32,0,.26,0,.38,0,.25.07.38.05.26.07.41A4,4,0,0,1,313.16,431.79Zm2.31,30.13a1.61,1.61,0,0,1-.36,1.25,1.82,1.82,0,0,1-1.25.39,4.56,4.56,0,0,1-1-.08,6.05,6.05,0,0,1-1.09-.29,5.43,5.43,0,0,1-1-.48,2.13,2.13,0,0,1-.7-.66,4.16,4.16,0,0,1-.31-1.39c-.1-.78-.18-1.75-.26-2.91s-.15-2.46-.23-3.9-.15-2.89-.21-4.35-.1-2.89-.14-4.28l-.11-3.64-.09-2.91c0-.25,0-.51,0-.76a1.74,1.74,0,0,1,.14-.67,1.08,1.08,0,0,1,.4-.48,1.37,1.37,0,0,1,.81-.22,3,3,0,0,1,2.47.86,4.72,4.72,0,0,1,1,2.45q.26,2.29.42,4.59c.11,1.53.21,3.07.31,4.63s.18,2.81.26,4.18.2,2.75.37,4.1c0,.28.07.55.1.8a6.58,6.58,0,0,0,.14.75c.06.51.13,1,.19,1.49A12.48,12.48,0,0,1,315.47,461.92Z"/><path class="cls-2" d="M333.38,456.12a5.06,5.06,0,0,1-.56,2.36,9,9,0,0,1-1.54,2.27,8.73,8.73,0,0,1-2.2,1.71,5.44,5.44,0,0,1-2.5.72,6.29,6.29,0,0,1-3.09-.61,7.29,7.29,0,0,1-2.29-1.82,10.63,10.63,0,0,1-1.62-2.66,20.45,20.45,0,0,1-1-3.1,25.58,25.58,0,0,1-.57-3.2c-.12-1.08-.19-2.05-.22-2.94s0-1.65.05-2.69a31.9,31.9,0,0,1,.36-3.23,22.87,22.87,0,0,1,.79-3.32,13.36,13.36,0,0,1,1.33-3,7.41,7.41,0,0,1,2-2.14,5.14,5.14,0,0,1,4.92-.46,5.08,5.08,0,0,1,1.67,1.26,6.14,6.14,0,0,1,1.07,1.85,6.41,6.41,0,0,1,.43,2.18,8.86,8.86,0,0,1-.58,3.24,18.26,18.26,0,0,1-1.66,3.42,17.93,17.93,0,0,1-2.34,3,11.26,11.26,0,0,1-2.61,2.07c.07.45.19,1.11.37,2a20,20,0,0,0,.7,2.57,11.09,11.09,0,0,0,1,2.21,1.58,1.58,0,0,0,1.34.91,1,1,0,0,0,.65-.25,2.43,2.43,0,0,0,.5-.62,6,6,0,0,0,.37-.85l.29-.88.22-.54.09-.15s0-.06,0-.12c.16-.33.33-.64.48-.92a2.26,2.26,0,0,1,.68-.74h0a.61.61,0,0,1,.32-.18l.32,0a1.91,1.91,0,0,1,.92.24,4.41,4.41,0,0,1,.93.64,3.53,3.53,0,0,1,.7.85A1.85,1.85,0,0,1,333.38,456.12Zm-8-16.48a7.7,7.7,0,0,0-.07-.79,1.9,1.9,0,0,0-.21-.72,7.13,7.13,0,0,0-.88,1.57,12.75,12.75,0,0,0-.6,1.87,19,19,0,0,0-.38,2c-.09.66-.16,1.26-.19,1.82a14.29,14.29,0,0,0,1.66-2.72A6.6,6.6,0,0,0,325.38,439.64Z"/><path class="cls-2" d="M56.49,488.66c36.28-2.27,72.56-5,108.9-6.1q15.41-.46,30.82-.43c1.66,0,1.58-2.56-.08-2.57-36.36-.17-72.66,2.32-108.93,4.59l-30.79,1.93c-1.65.11-1.58,2.68.08,2.58Z"/><path class="cls-2" d="M245.65,483.89c5.73-1.41,11.8-1.58,17.66-2,6.15-.42,12.3-.73,18.46-1,12.12-.52,24.25-1,36.38-1.45l20.75-.83a1.29,1.29,0,0,0-.08-2.58c-24.62,1-49.3,1.56-73.88,3.17-6.65.44-13.55.61-20.05,2.21-1.61.39-.85,2.85.76,2.46Z"/></svg>