<svg id="Layer_1" data-name="Layer 1" xmlns="http://www.w3.org/2000/svg" viewBox="0 0 1387.85 1678.32"><title>Self-raising Rosie Logo copy</title><path d="M114.74,1490.42a71.25,71.25,0,0,1-4.21,24.56,61.23,61.23,0,0,1-12,20.26,58,58,0,0,1-18.86,13.86,57.2,57.2,0,0,1-24.56,5.18,62.54,62.54,0,0,1-22-3.77,52.36,52.36,0,0,1-17.46-10.62,47.43,47.43,0,0,1-11.49-16.67A56.13,56.13,0,0,1,0,1501.29q0-2.44.18-6.14a30.88,30.88,0,0,1,1.14-7.1,16.62,16.62,0,0,1,2.8-5.79,6.37,6.37,0,0,1,5.35-2.37A19.89,19.89,0,0,1,15.7,1481a28,28,0,0,1,6.41,3.07,19.34,19.34,0,0,1,5,4.65,9.7,9.7,0,0,1,2,5.88v10.17q0,12.1,6.58,19.74t19,7.63a27.43,27.43,0,0,0,15.09-4,32.71,32.71,0,0,0,10.26-10.35,46.71,46.71,0,0,0,5.79-14.13,66.54,66.54,0,0,0,1.84-15.35,70.7,70.7,0,0,0-6-28.6,161.73,161.73,0,0,0-15.18-27.1q-9.12-13.24-19.82-26.06t-19.83-25.44a164.88,164.88,0,0,1-15.17-25.26,59,59,0,0,1-6.06-25.79,37.87,37.87,0,0,1,4.3-18.51,37.65,37.65,0,0,1,11.41-12.81,49.61,49.61,0,0,1,16.14-7.37A73.3,73.3,0,0,1,56.14,1289a62.21,62.21,0,0,1,21.06,3.34A43.13,43.13,0,0,1,93,1302a41.48,41.48,0,0,1,9.91,15.52,60,60,0,0,1,3.42,21c0,1.17-.06,2.63-.17,4.38a26.59,26.59,0,0,1-.88,5.18,12.71,12.71,0,0,1-2.11,4.39,4.59,4.59,0,0,1-3.86,1.84,15.51,15.51,0,0,1-7-1.76,29.71,29.71,0,0,1-4.83-3.07,11.72,11.72,0,0,1-2.89-3.33A14.83,14.83,0,0,1,83,1342a46.89,46.89,0,0,1-.88-5.62,91,91,0,0,0-2.28-11.4,23.77,23.77,0,0,0-4.21-8.6,18.51,18.51,0,0,0-7.37-5.44A30.59,30.59,0,0,0,56.49,1309a43.38,43.38,0,0,0-9.73,1.06,21.91,21.91,0,0,0-8.07,3.51,17.58,17.58,0,0,0-5.44,6.4,21.18,21.18,0,0,0-2,9.74,41.79,41.79,0,0,0,3.6,16.49,105,105,0,0,0,9.47,17.19q5.88,8.77,13.33,18t15.36,19q7.89,9.83,15.35,20.27a185,185,0,0,1,13.33,21.66,131.33,131.33,0,0,1,9.48,23.25A86.4,86.4,0,0,1,114.74,1490.42Z" style="fill:#231f20"/><path d="M195.1,1513.75a23.69,23.69,0,0,1-2.9,10.88,42.1,42.1,0,0,1-7.45,10.26,39.75,39.75,0,0,1-10.44,7.63,25.49,25.49,0,0,1-11.67,3,29.22,29.22,0,0,1-14.21-3.25,33.59,33.59,0,0,1-10.35-8.77,47.68,47.68,0,0,1-7.11-12.55,94.58,94.58,0,0,1-4.3-14.47,119.67,119.67,0,0,1-2.19-14.91q-.62-7.45-.61-13.6,0-5.26.61-12.46a141.65,141.65,0,0,1,2.11-14.91,107.65,107.65,0,0,1,4.12-15.26,60.15,60.15,0,0,1,6.58-13.51,33.79,33.79,0,0,1,9.47-9.65,22.38,22.38,0,0,1,12.72-3.69,22,22,0,0,1,10.09,2.28,23.05,23.05,0,0,1,7.54,6.06,27.63,27.63,0,0,1,4.74,8.68,31.53,31.53,0,0,1,1.67,10.18,41.09,41.09,0,0,1-3.16,14.91,83.1,83.1,0,0,1-8.16,15.61A81.94,81.94,0,0,1,161,1479.8,52.06,52.06,0,0,1,148.6,1489q.36,3.16,1.41,9.21a95.92,95.92,0,0,0,2.89,12,49.79,49.79,0,0,0,4.39,10.35q2.53,4.4,6.05,4.39a4.78,4.78,0,0,0,3.07-1,10.43,10.43,0,0,0,2.37-2.81,23.35,23.35,0,0,0,1.84-3.86c.53-1.4,1-2.75,1.49-4l1.06-2.45c.23-.35.37-.59.44-.7l.26-.53c.82-1.52,1.6-2.92,2.37-4.21a10.26,10.26,0,0,1,3.24-3.33h-.17a2.47,2.47,0,0,1,1.49-.79,13.06,13.06,0,0,1,1.49-.09,9,9,0,0,1,4.21,1.23,19.47,19.47,0,0,1,4.21,3.07,17,17,0,0,1,3.16,4A8.79,8.79,0,0,1,195.1,1513.75Zm-34.74-77.37q0-1.76-.18-3.69a9.57,9.57,0,0,0-.87-3.33,31,31,0,0,0-4.3,7.11,58.33,58.33,0,0,0-3.07,8.59q-1.23,4.49-2,9t-1.14,8.42a64.38,64.38,0,0,0,8.07-12.37A30.27,30.27,0,0,0,160.36,1436.38Z" style="fill:#231f20"/><path d="M247.73,1551a6.37,6.37,0,0,1-1.23,4,9.28,9.28,0,0,1-3.07,2.54,15,15,0,0,1-4,1.41,20.62,20.62,0,0,1-4,.44,17,17,0,0,1-10.7-3.51,32.16,32.16,0,0,1-7.9-9,54.34,54.34,0,0,1-5.44-12.63q-2.1-7.11-3.51-14.21t-2.1-13.69q-.7-6.57-1.05-11.31-1.59-16.32-2.2-33.16t-.61-33.34q0-45.09,3.16-89.3c0-.46,0-1,.09-1.58s.08-1.16.08-1.75c.12-2.46.24-5.29.35-8.51s.29-6.41.53-9.56.5-6.06.79-8.69a20.79,20.79,0,0,1,1.14-5.53v.18a8.32,8.32,0,0,1,1.93-3.68c.82-.82,2.22-1.23,4.21-1.23a14.85,14.85,0,0,1,10.7,4.21,14,14,0,0,1,4.39,10.53c0,.93,0,1.84-.09,2.71s-.15,1.73-.26,2.55-.21,1.61-.26,2.37-.09,1.43-.09,2q-.53,6.86-.79,13.6t-.62,13.6q-.87,15.09-1.31,30.09t-.44,30.26q0,6.49.18,17t.7,22.9q.53,12.36,1.49,25.52t2.54,25.09q1.57,11.94,3.77,21.58t5.18,14.92a10.35,10.35,0,0,1,3.07,2.19,18.64,18.64,0,0,1,2.63,3.33,23.58,23.58,0,0,1,1.93,3.86A10.37,10.37,0,0,1,247.73,1551Z" style="fill:#231f20"/><path d="M320.37,1327.78a4,4,0,0,1-1.67,3.24,13.4,13.4,0,0,1-3.95,2.11,27.16,27.16,0,0,1-4.56,1.14,24,24,0,0,1-3.51.35,21.23,21.23,0,0,1-7.54-1.32,24.71,24.71,0,0,0-7.55-1.49,20.6,20.6,0,0,0-10.35,7q-4.56,5.45-7.19,15.79t-3,26a272.53,272.53,0,0,0,2.28,37.72q11.06-2.28,20.61-4a92.86,92.86,0,0,1,14.83-1.67c2.8,0,4.73.77,5.79,2.28a10,10,0,0,1,1.58,5.79,28.06,28.06,0,0,1-.71,6.49,8,8,0,0,1-3.68,4.92l-36.67,5.61q.87,7.37,1.49,14.83t1.32,14.65q2.8,22.8,4.82,37.37t3.34,23.24c.87,5.79,1.58,10,2.1,12.46s.91,4.21,1.14,5.09.38,1.25.44,1.14.09,0,.09.35c0,2.46-.76,4.18-2.28,5.18a9.76,9.76,0,0,1-5.44,1.49,32.84,32.84,0,0,1-5.18-.44,33.43,33.43,0,0,1-5.35-1.32,16.71,16.71,0,0,1-4.73-2.45,8.77,8.77,0,0,1-3-3.86q-1.39-11.94-3.33-22.81t-3.33-22.63q-1.41-13.86-3.07-29.48t-2.72-29.83a3.74,3.74,0,0,1-1.41.09,12.49,12.49,0,0,0-1.58-.09,7.79,7.79,0,0,1-4.65-1.31c-1.22-.88-1.84-2.48-1.84-4.83a13.94,13.94,0,0,1,2-7.37,9.6,9.6,0,0,1,6-4.38q-.52-9.64-1.23-21.41t-.52-23.94a163.21,163.21,0,0,1,2-23.69,64.55,64.55,0,0,1,6.57-20.35,38.71,38.71,0,0,1,13-14.3q8.24-5.43,21.23-5.44a44.28,44.28,0,0,1,7.45.88,56.88,56.88,0,0,1,9.74,2.72,35.71,35.71,0,0,1,8.51,4.47Q320.37,1324.45,320.37,1327.78Z" style="fill:#231f20"/><path d="M362.3,1455.33a6.82,6.82,0,0,1-.7,3,29.87,29.87,0,0,1-1.35,3.27,5.45,5.45,0,0,1-1.58,2,5.8,5.8,0,0,1-2.28,1,17.07,17.07,0,0,1-3.45.29H321.13c-.55,0-1.23,0-2.05-.06a13.89,13.89,0,0,1-2.46-.35,5.86,5.86,0,0,1-2.1-.94,2.23,2.23,0,0,1-.88-1.93,7.11,7.11,0,0,1,2-5,8.83,8.83,0,0,1,4.8-2.75,38.56,38.56,0,0,1,4.67-.41c1.56,0,3.12-.13,4.68-.29q6.68-.35,13.34-.76t13.56-.41c.55,0,1.15,0,1.82.06a7.55,7.55,0,0,1,1.87.35,2.86,2.86,0,0,1,1.4,1A3,3,0,0,1,362.3,1455.33Z" style="fill:#231f20"/><path d="M388.38,1548.66a25.53,25.53,0,0,1-5.7-.7,20.68,20.68,0,0,1-5.79-2.28,15.69,15.69,0,0,1-4.56-4,9,9,0,0,1-1.84-5.7q0-4.9.43-9.74t1-9.56v.18l1.05-11.76q.53-6.32.88-13.86t.61-15.35q.27-7.8.44-15.35t.18-13.86c0-2.46,0-4.94-.09-7.46s-.09-5.06-.09-7.63c-.12-2.22-.17-4.71-.17-7.46v-7.63a16.28,16.28,0,0,1,1-6c.64-1.58,2.49-2.37,5.53-2.37a20,20,0,0,1,8.51,2.11,12.23,12.23,0,0,1,6.23,6h-.18a21.91,21.91,0,0,1,1.32,6.23q.44,4.3.61,7.63,3-4.56,6.76-9.65a78.44,78.44,0,0,1,8.15-9.38,45.8,45.8,0,0,1,9.3-7.11,20.9,20.9,0,0,1,10.53-2.81q7.36,0,11.23,3.69a21.39,21.39,0,0,1,5.61,9.21,42.69,42.69,0,0,1,1.93,11.75q.18,6.24.18,11.32v1.4c0,1.41,0,2.78-.09,4.13a12.15,12.15,0,0,1-.7,3.68,5.59,5.59,0,0,1-2.11,2.72,7.05,7.05,0,0,1-4.12,1,24.53,24.53,0,0,1-6-.79,22.35,22.35,0,0,1-5.87-2.36,16.77,16.77,0,0,1-4.65-4,9.35,9.35,0,0,1-2.11-5.53v-2.81a22.05,22.05,0,0,1,.18-2.8c0-.59,0-1.32.09-2.2s.08-1.72.08-2.54a56.05,56.05,0,0,0-9.91,13.86,149.78,149.78,0,0,0-7.72,17.54q-3.42,9.32-5.88,18.69t-4.21,16.93v.53q-.53,5.43-.7,10.7c-.12,3.51-.24,7.13-.35,10.88q-.18,6.32-.44,12.8c-.17,4.33-.5,8.54-1,12.64a8.94,8.94,0,0,1-2,5.17C392.8,1548.05,391,1548.66,388.38,1548.66Z" style="fill:#231f20"/><path d="M528.56,1543.58c0,2.34-.58,3.94-1.75,4.82a8,8,0,0,1-4.91,1.32q-8.25,0-11.85-4.39a28.83,28.83,0,0,1-5.35-11.58c-.35-1.64-.7-3.3-1.05-5s-.64-3.36-.88-5a16.63,16.63,0,0,0-.7-3.16,16.82,16.82,0,0,1-.7-3.33,101.67,101.67,0,0,1-5.18,10.61,59.14,59.14,0,0,1-7.1,10.18,37,37,0,0,1-9,7.63,21,21,0,0,1-11,3,17.39,17.39,0,0,1-10.53-3.07,21.43,21.43,0,0,1-6.58-7.72,35.52,35.52,0,0,1-3.33-10.26,62.55,62.55,0,0,1-1-10.7,155.12,155.12,0,0,1,2.37-25.88,229,229,0,0,1,6.58-27.9,243.36,243.36,0,0,1,9.83-26.84,132.21,132.21,0,0,1,12.28-22.54v.17l1.05-1.58c1.28-1.75,2.78-3.65,4.47-5.7a7.68,7.68,0,0,1,6.06-3.07,7.39,7.39,0,0,1,5.79,2.89,18.59,18.59,0,0,1,3.51,6.06,32.08,32.08,0,0,1,7.36,2.19,12.28,12.28,0,0,1,4.39,3.25,10.4,10.4,0,0,1,2.11,4.47A27.42,27.42,0,0,1,514,1428v2.63a24.08,24.08,0,0,1-.17,2.81,26.48,26.48,0,0,0-.18,3.33v3.51a21.67,21.67,0,0,0,.62,4.56q.6,2.81,1.31,5.79l1.23,6.49q.87,5.1,1.49,11.58t1.49,13q.71,6.67,1.41,12.9t1.4,11.49l4.21,26,.53,3c.23,1.52.49,2.92.79,4.21A20.1,20.1,0,0,1,528.56,1543.58Zm-40.17-100.89a5.94,5.94,0,0,0-.18-1.14c-.12-.52-.23-1.07-.35-1.66a140.21,140.21,0,0,0-7.11,18.68,203.06,203.06,0,0,0-5.08,20.53q-2,10.44-3,20.88t-1,19.74v1.57a6.18,6.18,0,0,0,.17,1.41v.17a64.47,64.47,0,0,0,7.29-17.1,223.16,223.16,0,0,0,5.17-22.28q2.1-11.67,3.07-22.64T488.39,1442.69Z" style="fill:#231f20"/><path d="M562.07,1398.31c0,2-.43,3.42-1.31,4.29s-2.49,1.32-4.83,1.32a42.52,42.52,0,0,1-4.91-.44,57.72,57.72,0,0,1-6.75-1.31,21.59,21.59,0,0,1-6-2.46c-1.7-1-2.54-2.34-2.54-3.86a38.17,38.17,0,0,1,.52-3.95q.53-3.24,1.32-6.93c.53-2.45,1-4.67,1.4-6.66a10.77,10.77,0,0,1,1-3.34v.18a3.74,3.74,0,0,1,2.1-1.76,9.08,9.08,0,0,1,2.46-.35,25.63,25.63,0,0,1,4.12.44,39.22,39.22,0,0,1,5.09,1.23,21.77,21.77,0,0,1,4.65,2,5.59,5.59,0,0,1,2.63,2.63,12.39,12.39,0,0,1,.62,3.77,37.08,37.08,0,0,1-.09,4.3c0,.47,0,1-.09,1.67s-.09,1.14-.09,1.49a17.09,17.09,0,0,0,.09,1.75c.06.59.15,1.17.26,1.76A16.33,16.33,0,0,1,562,1396C562,1396.73,562.07,1397.49,562.07,1398.31Zm6.5,139.83q0,4-1.85,5.7c-1.22,1.11-3.19,1.67-5.87,1.67a23.1,23.1,0,0,1-4.65-.53,30.51,30.51,0,0,1-5-1.49,23.43,23.43,0,0,1-4.56-2.37,10.11,10.11,0,0,1-3.16-3.16q-.71-1.05-1.23-6.49t-.79-13.51q-.27-8.07-.53-18.07t-.35-20.18q-.09-10.17-.09-19.82v-30.35q0-1.76.09-3.51a8.16,8.16,0,0,1,.7-3.07,5.41,5.41,0,0,1,1.93-2.2,6.86,6.86,0,0,1,3.78-.87q7.71,0,11.31,4.29t4.48,11.5q.87,10.69,1.31,21.31t.79,21.5q.35,9.83.62,19.38t1.14,19c.11,1.29.23,2.52.35,3.68a35,35,0,0,0,.52,3.51c.24,2.34.47,4.65.71,6.93A70.83,70.83,0,0,1,568.57,1538.14Z" style="fill:#231f20"/><path d="M643.66,1417.25a4.62,4.62,0,0,1-1.49,3.51,13.24,13.24,0,0,1-3.6,2.37,16.54,16.54,0,0,1-4.3,1.32,24.14,24.14,0,0,1-3.6.35,18.3,18.3,0,0,1-4-.44c-1.29-.29-2.57-.61-3.86-1s-2.52-.68-3.69-1a15.14,15.14,0,0,0-3.68-.44,17.12,17.12,0,0,0-10,3.34,12.86,12.86,0,0,0-3.42,3.85,10,10,0,0,0-1.32,5.09,21.14,21.14,0,0,0,1.76,8.34,47.24,47.24,0,0,0,4.65,8.33,92.73,92.73,0,0,0,6.66,8.51q3.78,4.3,8,8.68,5.09,5.63,10.26,11.41a101.18,101.18,0,0,1,9.3,12.1A68.21,68.21,0,0,1,648,1505a41.51,41.51,0,0,1,2.64,14.74,30.83,30.83,0,0,1-2.2,11.93,25.35,25.35,0,0,1-6.14,8.94,27.57,27.57,0,0,1-9.47,5.71,35,35,0,0,1-12,2,30.61,30.61,0,0,1-5.35-.7q-3.6-.7-8.16-2T598,1542.7a77.27,77.27,0,0,1-8.77-3.42,39.81,39.81,0,0,1-6.49-3.69c-1.7-1.22-2.54-2.36-2.54-3.42a6.61,6.61,0,0,1,1.93-4.3,25.26,25.26,0,0,1,4.56-4,29.91,29.91,0,0,1,5.52-3.07,12.93,12.93,0,0,1,4.83-1.23,14.16,14.16,0,0,1,5.53,1.23c1.93.82,3.88,1.75,5.87,2.81,2.22,1.17,4.48,2.22,6.76,3.15a18.47,18.47,0,0,0,7.1,1.41c1.87,0,3-.64,3.25-1.93a20.06,20.06,0,0,0,.44-4.39,32.41,32.41,0,0,0-2.11-11.67,60.32,60.32,0,0,0-5.44-10.79,82.43,82.43,0,0,0-7.72-10.26q-4.38-5-8.77-9.91-4.56-4.9-8.86-9.83a85.17,85.17,0,0,1-7.63-10.09,54.17,54.17,0,0,1-5.35-10.61,32.87,32.87,0,0,1-2-11.58,27.76,27.76,0,0,1,3.33-13.6,35.65,35.65,0,0,1,8.69-10.44,39.72,39.72,0,0,1,12.1-6.75,40.83,40.83,0,0,1,13.6-2.37,39.62,39.62,0,0,1,7,1,59.11,59.11,0,0,1,9.3,2.71,37.41,37.41,0,0,1,8.07,4.22Q643.66,1414.28,643.66,1417.25Z" style="fill:#231f20"/><path d="M681.73,1398.31q0,3-1.32,4.29t-4.82,1.32a42.52,42.52,0,0,1-4.91-.44,57.48,57.48,0,0,1-6.76-1.31,21.39,21.39,0,0,1-6-2.46q-2.55-1.57-2.55-3.86a39.58,39.58,0,0,1,.53-3.95q.52-3.24,1.31-6.93t1.41-6.66a11.23,11.23,0,0,1,1-3.34v.18a3.78,3.78,0,0,1,2.11-1.76,9,9,0,0,1,2.45-.35,25.73,25.73,0,0,1,4.13.44,39.62,39.62,0,0,1,5.09,1.23,22.22,22.22,0,0,1,4.65,2,5.59,5.59,0,0,1,2.63,2.63,12.42,12.42,0,0,1,.61,3.77,33.1,33.1,0,0,1-.09,4.3c0,.47,0,1-.08,1.67a13.88,13.88,0,0,0-.09,1.49,14.65,14.65,0,0,0,.09,1.75,15.25,15.25,0,0,0,.26,1.76,18.86,18.86,0,0,1,.26,1.93Q681.73,1397.08,681.73,1398.31Zm6.49,139.83q0,4-1.84,5.7t-5.88,1.67a23.18,23.18,0,0,1-4.65-.53,31.11,31.11,0,0,1-5-1.49,23.43,23.43,0,0,1-4.56-2.37,10.22,10.22,0,0,1-3.16-3.16q-.71-1.05-1.23-6.49t-.79-13.51q-.25-8.07-.52-18.07t-.35-20.18q-.09-10.17-.09-19.82v-30.35q0-1.76.09-3.51a8.16,8.16,0,0,1,.7-3.07,5.34,5.34,0,0,1,1.93-2.2,6.83,6.83,0,0,1,3.77-.87q7.73,0,11.32,4.29t4.47,11.5q.89,10.69,1.32,21.31t.79,21.5q.35,9.83.61,19.38t1.14,19c.11,1.29.24,2.52.35,3.68a35,35,0,0,0,.53,3.51q.35,3.51.7,6.93A70.83,70.83,0,0,1,688.22,1538.14Z" style="fill:#231f20"/><path d="M733,1545q0,4-2.37,5.26a12.24,12.24,0,0,1-5.7,1.23A39.52,39.52,0,0,1,719,1551a19.21,19.21,0,0,1-5.44-1.66,13.66,13.66,0,0,1-4.38-3.34,11.73,11.73,0,0,1-2.55-5.44,106.3,106.3,0,0,1-2.8-20.61q-.36-10.1-.35-20.79v-21.58q0-14.74,1.22-30.62t2.63-30.61a5.07,5.07,0,0,1,.18-1.23,5.41,5.41,0,0,0,.18-1.05c.11-1.29.28-2.69.52-4.21a17.67,17.67,0,0,1,1.14-4.13,8.06,8.06,0,0,1,2.28-3.07,6.06,6.06,0,0,1,4-1.23,12.92,12.92,0,0,1,5.35,1.14,16.1,16.1,0,0,1,4.48,3,13.84,13.84,0,0,1,3.07,4.47,13.58,13.58,0,0,1,1.14,5.44c0,2-.07,4.18-.18,6.58s-.29,4.65-.53,6.75c0,.59,0,1.23-.08,1.93a16.33,16.33,0,0,1-.27,1.93q2.46-4.9,5.62-10.26a57.18,57.18,0,0,1,7.28-9.82,37,37,0,0,1,9.12-7.29,22.5,22.5,0,0,1,11.14-2.8,19.53,19.53,0,0,1,8.42,1.58,13.4,13.4,0,0,1,5.36,4.47,17.93,17.93,0,0,1,2.8,6.75,41,41,0,0,1,.79,8.25q0,6-.35,12t-.7,12q-.52,6.14-.88,12.1t-.35,12.11q0,7.37.35,15.17t1.06,14.92c.46,4.73,1,9,1.57,12.81a81.1,81.1,0,0,0,1.76,8.86q.69,2.63,1.49,6.05c.53,2.28,1.05,4.62,1.58,7s1,4.71,1.32,6.93a38.66,38.66,0,0,1,.52,6c0,2.57-1,4.21-3.07,4.91a18.37,18.37,0,0,1-6,1.06,59.82,59.82,0,0,1-6.76-.44,19,19,0,0,1-6.75-2,12.2,12.2,0,0,1-4.83-7.37,59.69,59.69,0,0,1-1.49-9.3l-.52-4.73q-.53-4.22-1.41-11.06c-.59-4.56-1.14-9.58-1.66-15.09s-1-11.19-1.32-17.1-.53-11.67-.53-17.28q0-7.55.62-14.57t1.31-14.21c.24-2.45.41-4.44.53-6s.29-3.51.53-6a122,122,0,0,0-7,13.16q-3.51,7.54-6.67,15.7t-5.7,15.88q-2.55,7.72-3.95,13.51l-1.05,3.86c-.59,1.87-1.08,3.75-1.49,5.62a24.62,24.62,0,0,0-.62,5.26q0,3.15.35,7.28t.88,7.81q.53,4.38,1.23,9a20.35,20.35,0,0,0,.35,2.28c.24,1.29.47,2.8.7,4.56s.44,3.59.62,5.52S733,1543.46,733,1545Z" style="fill:#231f20"/><path d="M888.93,1502.35a11.25,11.25,0,0,1-1,4.12,39.47,39.47,0,0,1-2.46,4.91c-1,1.7-2.08,3.42-3.24,5.18s-2.29,3.33-3.34,4.73L876.3,1525l-2.63,4.56-2.28,4.21c.11,2.34.29,4.86.52,7.55s.47,5.26.71,7.72q1.92,18.06,3.42,36.84t1.49,36.84a124.68,124.68,0,0,1-1.58,19.57,55.89,55.89,0,0,1-5.88,17.89,36.33,36.33,0,0,1-11.84,13.07q-7.54,5.08-19.3,5.09a28.81,28.81,0,0,1-13.68-3,24.81,24.81,0,0,1-9-8,34.48,34.48,0,0,1-5-11.66,60.16,60.16,0,0,1-1.58-13.86,128.8,128.8,0,0,1,3.33-28.78,221.35,221.35,0,0,1,8.69-28.77,287.07,287.07,0,0,1,12.19-27.81q6.84-13.59,13.86-26v-.79a11.42,11.42,0,0,0-.17-1.49q-2.28,4.2-5.18,8.68a46.11,46.11,0,0,1-6.49,8,34.22,34.22,0,0,1-7.9,5.79,20.06,20.06,0,0,1-9.56,2.29,20.58,20.58,0,0,1-12.28-3.51,25.84,25.84,0,0,1-7.81-8.95,41.68,41.68,0,0,1-4.12-11.93,66.09,66.09,0,0,1-1.23-12.28,110.19,110.19,0,0,1,.79-13.16q.79-6.49,1.84-12.63,1.75-9.83,4.48-21.32a215.71,215.71,0,0,1,6.75-22.81,156.67,156.67,0,0,1,9.39-21.32,69.17,69.17,0,0,1,12.54-17l1.41-1.23a46.42,46.42,0,0,1,5.26-4.48,10.28,10.28,0,0,1,6.14-2.19,5.77,5.77,0,0,1,3.42,1,9.64,9.64,0,0,1,2.55,2.72,15.72,15.72,0,0,1,1.66,3.6,12.18,12.18,0,0,1,.62,3.68,8.61,8.61,0,0,1-1.58,4.57h.35q10.7,0,14.39,9.82a11.1,11.1,0,0,1,2.89,4.21,14.37,14.37,0,0,1,1,5.26c0,.94-.07,2-.18,3.07a21.88,21.88,0,0,1-.53,3.08c-.23,1.05-.41,2-.52,3a20.76,20.76,0,0,0-.18,2.63c0,2.69.06,6,.18,10s.29,8.13.52,12.46.5,8.57.79,12.72.56,7.75.79,10.79a14.33,14.33,0,0,1,2.9-2.81,6.47,6.47,0,0,1,3.95-1.23,9.54,9.54,0,0,1,4.47,1.41,22.84,22.84,0,0,1,4.74,3.5,23.86,23.86,0,0,1,3.68,4.48A8.29,8.29,0,0,1,888.93,1502.35Zm-48.25-72.29q0-1.05.09-2.28a15.18,15.18,0,0,1,.44-2.63l-1.23,1.58c-.94,1-1.81,2-2.63,3a29,29,0,0,0-2.28,3,67.34,67.34,0,0,0-8,17.29,191.86,191.86,0,0,0-5.7,22.28q-2.28,11.67-3.43,22.89t-1.14,19.3c0,2.7.06,5.38.18,8.07a23.25,23.25,0,0,0,1.75,7.9,25.41,25.41,0,0,0,4-5.7q1.58-3.08,3-6.41a117.57,117.57,0,0,0,6.67-20q2.8-11.4,4.56-23.51t2.63-23.77Q840.52,1439.36,840.68,1430.06ZM854,1617.44q0-11.94-.53-22.37t-1.58-22.37q-3.15,7.54-6.4,16.23t-5.7,17.54q-2.46,8.87-4,17.64a94.43,94.43,0,0,0-1.58,16.66V1642a77.84,77.84,0,0,0,.53,8.69,12.93,12.93,0,0,0,3.33,7.63H840a8,8,0,0,0,5.88-2.37,19.06,19.06,0,0,0,3.95-6,40.16,40.16,0,0,0,2.45-8.25,79.19,79.19,0,0,0,1.23-9.12c.24-3,.38-5.91.44-8.6S854,1619.08,854,1617.44Z" style="fill:#231f20"/><path d="M1087.71,1545.16a4.11,4.11,0,0,1-2.1,3.5,18.77,18.77,0,0,1-5,2.29,34.14,34.14,0,0,1-5.79,1.22,37.88,37.88,0,0,1-4.3.35,21.69,21.69,0,0,1-5.7-.61,27.06,27.06,0,0,1-5.18-2.19,28.3,28.3,0,0,1-4.12-4.48q-3.26-3.95-8.07-10.26t-10.88-14.39L1024.11,1504q-6.4-8.51-12.63-17T1000,1471.38q-5.26-7.11-9-12.46t-5.36-7.45l-1.05.35q1.05,20.88,2.72,41.67a358.59,358.59,0,0,0,5.7,41.14c.35,1.4.73,2.87,1.14,4.38a18.18,18.18,0,0,1,.62,4.74c0,2.69-.88,4.41-2.63,5.18a14.45,14.45,0,0,1-5.79,1.14c-1.17,0-2.58-.06-4.21-.18a39.29,39.29,0,0,1-5.09-.7,33.07,33.07,0,0,1-4.83-1.32,9.19,9.19,0,0,1-3.42-2,9.07,9.07,0,0,1-3.07-4.39q-.62-2.28-1.14-5.44a667.41,667.41,0,0,1-6.4-70.79q-1.32-35.54-1.32-71,0-15.43.18-30.35t.52-30.35a8.24,8.24,0,0,1-3.94-1.41,13.3,13.3,0,0,1-3.25-3.07,15.54,15.54,0,0,1-2.19-3.86,10.69,10.69,0,0,1-.79-4,8.63,8.63,0,0,1,1-3.86,14.37,14.37,0,0,1,2.46-3.5,30.85,30.85,0,0,1,3.24-3,35.69,35.69,0,0,1,3.16-2.28v-3.16c0-1.16,0-2.51.09-4a17,17,0,0,1,.7-4.3,7.38,7.38,0,0,1,2-3.33,5.94,5.94,0,0,1,4.21-1.32,23.16,23.16,0,0,1,7.37,1.23,13.77,13.77,0,0,1,6.31,4.39,74,74,0,0,1,27.73-5.27,53,53,0,0,1,23.33,5.09,55.57,55.57,0,0,1,18,13.69,61.91,61.91,0,0,1,11.49,19.82,69.58,69.58,0,0,1-.87,49,110.64,110.64,0,0,1-12.81,23.42,128.52,128.52,0,0,1-18,20.26,166.35,166.35,0,0,1-20.44,16.06q16.49,21.93,33.42,43.42t34.65,42.9q1,1.23,3.25,3.68t4.47,5.35c1.52,1.93,2.83,3.78,4,5.53A8.63,8.63,0,0,1,1087.71,1545.16Zm-51.23-193a43.71,43.71,0,0,0-2.28-13.51,44.43,44.43,0,0,0-6.49-12.72,36.74,36.74,0,0,0-10.09-9.38,24.07,24.07,0,0,0-13.07-3.69,40.8,40.8,0,0,0-11.49,1.67,64.78,64.78,0,0,0-11,4.3q.35,26.14.61,52.28t.79,52.29l3.16.35a106.8,106.8,0,0,0,18-12.81,111.86,111.86,0,0,0,16-17.2,92.1,92.1,0,0,0,11.49-20.08A55.92,55.92,0,0,0,1036.48,1352.16Z" style="fill:#231f20"/><path d="M1159.47,1473.92a184.35,184.35,0,0,1-2.54,30.44,84.11,84.11,0,0,1-10.44,28.69,65.28,65.28,0,0,1-5.61,7.81,50.38,50.38,0,0,1-6.94,6.84,32.93,32.93,0,0,1-8.24,4.91,24.4,24.4,0,0,1-9.39,1.84,24.67,24.67,0,0,1-13.42-3.59,34.27,34.27,0,0,1-9.82-9.48,57.29,57.29,0,0,1-6.85-13.33,98.24,98.24,0,0,1-4.21-15.26,146.8,146.8,0,0,1-2.1-15.18q-.63-7.36-.62-13,0-6.32.53-13.86t1.84-15.44a144.38,144.38,0,0,1,3.51-15.62,76.73,76.73,0,0,1,5.7-14.47,56.25,56.25,0,0,1,8.42-12.11,37.9,37.9,0,0,1,11.41-8.51v.18a23.7,23.7,0,0,1,11.23-3,8.76,8.76,0,0,1,5.44,1.49q1.92,1.49,1.75,5a24.91,24.91,0,0,1,15.61,9.3,55.64,55.64,0,0,1,9.22,17.54,102.12,102.12,0,0,1,4.38,20.53A172.66,172.66,0,0,1,1159.47,1473.92Zm-39.65-43.86a8.42,8.42,0,0,1-5.61-2.28,52.44,52.44,0,0,0-5.62,11.67A94.55,94.55,0,0,0,1105,1453a123.88,123.88,0,0,0-1.85,14q-.53,7-.52,13.15c0,3.4.17,7.75.52,13.08a139.12,139.12,0,0,0,2,16,83.8,83.8,0,0,0,4.21,15.09c1.82,4.68,4.18,8.13,7.11,10.35a24,24,0,0,0,9-10.09,71.11,71.11,0,0,0,5.71-15.18,108.75,108.75,0,0,0,2.89-16.66q.8-8.43.79-14.39c0-2.92-.18-6.73-.53-11.4s-.94-9.45-1.75-14.3a84.49,84.49,0,0,0-3.42-13.6q-2.2-6.32-5.53-9.47A12.34,12.34,0,0,1,1119.82,1430.06Z" style="fill:#231f20"/><path d="M1231.41,1417.25a4.59,4.59,0,0,1-1.5,3.51,13,13,0,0,1-3.59,2.37,16.66,16.66,0,0,1-4.3,1.32,24.26,24.26,0,0,1-3.6.35,18.23,18.23,0,0,1-4-.44c-1.29-.29-2.58-.61-3.86-1s-2.52-.68-3.69-1a15.2,15.2,0,0,0-3.68-.44,17.12,17.12,0,0,0-10,3.34,12.6,12.6,0,0,0-3.42,3.85,10,10,0,0,0-1.32,5.09,21.14,21.14,0,0,0,1.76,8.34,47.24,47.24,0,0,0,4.65,8.33,89.38,89.38,0,0,0,6.66,8.51q3.78,4.3,8,8.68,5.1,5.63,10.27,11.41a101.18,101.18,0,0,1,9.3,12.1,68.21,68.21,0,0,1,6.75,13.34,41.51,41.51,0,0,1,2.63,14.74,30.83,30.83,0,0,1-2.19,11.93,25.35,25.35,0,0,1-6.14,8.94,27.57,27.57,0,0,1-9.47,5.71,35,35,0,0,1-12,2,30.61,30.61,0,0,1-5.35-.7q-3.6-.7-8.16-2c-3-.87-6.17-1.84-9.39-2.89a77.27,77.27,0,0,1-8.77-3.42,39.81,39.81,0,0,1-6.49-3.69q-2.55-1.83-2.55-3.42a6.61,6.61,0,0,1,1.93-4.3,25.68,25.68,0,0,1,4.57-4,29.91,29.91,0,0,1,5.52-3.07,12.93,12.93,0,0,1,4.83-1.23,14.12,14.12,0,0,1,5.52,1.23c1.93.82,3.89,1.75,5.88,2.81q3.33,1.76,6.76,3.15a18.43,18.43,0,0,0,7.1,1.41c1.87,0,3-.64,3.25-1.93a20.06,20.06,0,0,0,.44-4.39,32.63,32.63,0,0,0-2.11-11.67,60.32,60.32,0,0,0-5.44-10.79,82.43,82.43,0,0,0-7.72-10.26q-4.38-5-8.77-9.91-4.56-4.9-8.86-9.83a85.17,85.17,0,0,1-7.63-10.09,53.62,53.62,0,0,1-5.35-10.61,32.87,32.87,0,0,1-2-11.58,27.76,27.76,0,0,1,3.33-13.6,35.65,35.65,0,0,1,8.69-10.44,39.6,39.6,0,0,1,12.1-6.75,40.83,40.83,0,0,1,13.6-2.37,39.62,39.62,0,0,1,7,1,59.11,59.11,0,0,1,9.3,2.71,37.65,37.65,0,0,1,8.07,4.22Q1231.41,1414.28,1231.41,1417.25Z" style="fill:#231f20"/><path d="M1269.48,1398.31q0,3-1.32,4.29c-.88.88-2.48,1.32-4.82,1.32a42.47,42.47,0,0,1-4.92-.44,57.72,57.72,0,0,1-6.75-1.31,21.59,21.59,0,0,1-6-2.46q-2.54-1.57-2.54-3.86a39.58,39.58,0,0,1,.53-3.95q.52-3.24,1.31-6.93c.53-2.45,1-4.67,1.41-6.66a10.91,10.91,0,0,1,1-3.34v.18a3.78,3.78,0,0,1,2.11-1.76,9,9,0,0,1,2.45-.35,25.73,25.73,0,0,1,4.13.44,39.08,39.08,0,0,1,5.08,1.23,21.77,21.77,0,0,1,4.65,2,5.62,5.62,0,0,1,2.64,2.63,12.42,12.42,0,0,1,.61,3.77,33.1,33.1,0,0,1-.09,4.3c0,.47,0,1-.09,1.67s-.08,1.14-.08,1.49a17.08,17.08,0,0,0,.08,1.75c.06.59.15,1.17.27,1.76a18.86,18.86,0,0,1,.26,1.93Q1269.48,1397.08,1269.48,1398.31Zm6.49,139.83q0,4-1.84,5.7t-5.88,1.67a23.18,23.18,0,0,1-4.65-.53,30.81,30.81,0,0,1-5-1.49,23.43,23.43,0,0,1-4.56-2.37,10.11,10.11,0,0,1-3.16-3.16q-.7-1.05-1.23-6.49t-.79-13.51q-.25-8.07-.52-18.07t-.35-20.18q-.1-10.17-.09-19.82v-30.35c0-1.17,0-2.34.09-3.51a7.79,7.79,0,0,1,.7-3.07,5.34,5.34,0,0,1,1.93-2.2,6.8,6.8,0,0,1,3.77-.87q7.72,0,11.32,4.29t4.47,11.5q.87,10.69,1.32,21.31t.79,21.5q.35,9.83.61,19.38t1.14,19c.11,1.29.23,2.52.35,3.68a32.33,32.33,0,0,0,.53,3.51q.35,3.51.7,6.93A70.83,70.83,0,0,1,1276,1538.14Z" style="fill:#231f20"/><path d="M1359.66,1513.75a23.69,23.69,0,0,1-2.9,10.88,42.1,42.1,0,0,1-7.45,10.26,39.58,39.58,0,0,1-10.44,7.63,25.49,25.49,0,0,1-11.67,3,29.22,29.22,0,0,1-14.21-3.25,33.59,33.59,0,0,1-10.35-8.77,47.68,47.68,0,0,1-7.11-12.55,94.58,94.58,0,0,1-4.3-14.47,119.67,119.67,0,0,1-2.19-14.91q-.61-7.45-.61-13.6,0-5.26.61-12.46a141.65,141.65,0,0,1,2.11-14.91,107.65,107.65,0,0,1,4.12-15.26,60.15,60.15,0,0,1,6.58-13.51,33.79,33.79,0,0,1,9.47-9.65,22.38,22.38,0,0,1,12.72-3.69,22,22,0,0,1,10.09,2.28,23.05,23.05,0,0,1,7.54,6.06,27.63,27.63,0,0,1,4.74,8.68,31.53,31.53,0,0,1,1.67,10.18,41.09,41.09,0,0,1-3.16,14.91,84.66,84.66,0,0,1-19.39,29.21,52.06,52.06,0,0,1-12.37,9.21q.36,3.16,1.41,9.21a95.92,95.92,0,0,0,2.89,12,49.79,49.79,0,0,0,4.39,10.35q2.54,4.4,6.05,4.39a4.78,4.78,0,0,0,3.07-1,10.43,10.43,0,0,0,2.37-2.81,23.35,23.35,0,0,0,1.84-3.86c.53-1.4,1-2.75,1.49-4l1.06-2.45c.23-.35.37-.59.44-.7s.14-.29.26-.53q1.21-2.28,2.37-4.21A10.26,10.26,0,0,1,1344,1502h-.17a2.47,2.47,0,0,1,1.49-.79,13.2,13.2,0,0,1,1.49-.09,9,9,0,0,1,4.21,1.23,19.47,19.47,0,0,1,4.21,3.07,17,17,0,0,1,3.16,4A8.79,8.79,0,0,1,1359.66,1513.75Zm-34.74-77.37q0-1.76-.18-3.69a9.35,9.35,0,0,0-.87-3.33,31,31,0,0,0-4.3,7.11,58.33,58.33,0,0,0-3.07,8.59q-1.23,4.49-2,9t-1.14,8.42a64.38,64.38,0,0,0,8.07-12.37A30.27,30.27,0,0,0,1324.92,1436.38Z" style="fill:#231f20"/><path d="M73.37,1625.75c168.24-5.46,336.6-13,505-13q71.38,0,142.73,2.31c7.68.27,7.67-11.67,0-11.93-168.3-5.85-336.69.62-504.9,6.07l-142.78,4.64c-7.67.24-7.7,12.18,0,11.93Z" style="fill:#231f20"/><path d="M949.68,1630.07c26.7-5.71,54.84-5.64,82-6.68,28.51-1.1,57-1.67,85.57-2.05,56.2-.75,112.41-1.14,168.62-1.67l96.18-.92c7.68-.08,7.7-12,0-11.94-114.11,1.09-228.42.34-342.48,4.35-30.83,1.09-62.8.93-93.09,7.4-7.51,1.61-4.33,13.12,3.17,11.51Z" style="fill:#231f20"/><circle cx="693.92" cy="703.89" r="451.54" style="fill:#a3d9cf"/><path d="M661.45,1166.17c-113.46-7.82-218.72-56.34-298.88-138.33-86.53-88.51-133.41-205.41-132-329.18S281.47,459.07,370,372.54s205.42-133.41,329.19-132,239.58,50.91,326.11,139.42,133.42,205.41,132,329.19-50.91,239.58-139.42,326.11-205.41,133.42-329.18,132Q675,1167.11,661.45,1166.17Zm63.28-900.89q-12.86-.88-25.84-1C581.45,262.92,470.53,307.4,386.56,389.5s-131,192-132.28,309.43,43.15,228.35,125.25,312.33,192,131,309.43,132.28,228.35-43.16,312.33-125.26,131-192,132.28-309.42-43.16-228.36-125.26-312.34C932.26,318.74,832.37,272.7,724.73,265.28Z" style="fill:#231f20"/><path id="_Path_" data-name="&lt;Path&gt;" d="M589.7,1148.39c12.13,19.77,24.25,45.62,11,64.65-8.92,12.8-26.61,16.63-41.92,14s-29.15-10.55-43.26-17.11c-24.76-11.5-51.16-19.16-75.71-31.1s-47.93-29.09-60-53.69c-20.29-41.35-3.93-90.17,3.77-135.63,17.14-101.2-11.12-206.84,11.45-307,2.67-11.84,6.19-23.82,13.5-33.48,9.32-12.3,23.71-19.46,37.82-25.62,158.11-69,340.75-61.61,507-15.61,8.54,2.36,17.5,5.1,23.51,11.64,5.14,5.59,7.39,13.21,9.25,20.59,17.59,69.56,15.11,142.38,19.61,214a1089.69,1089.69,0,0,0,34.91,213.34c3.46,12.92,6.56,28.48-2.58,38.19-4.46,4.73-10.9,6.86-16.77,9.62-29.25,13.73-46.36,44.62-72,64.36-14,10.83-30.44,18.11-46.65,25.29l-63.45,28.1c-5.65,2.51-11.51,5.06-17.69,5-13.43,0-24.07-12.35-27.92-25.28s-2.84-26.75-4-40.2c-.2-2.25-.53-4.65-2-6.32-3.16-3.52-8.86-1.66-13.16.29-58.73,26.61-131.27,19.45-183.75-18.12" style="fill:#754c29"/><path id="_Path_2" data-name="&lt;Path&gt;" d="M935.83,864.57c-4.74-27.1-11.92-53.54-20-79.75-19.85-38.15-43.06-74.52-62.42-113-15.45-9.8-30.65-20-44.75-31.85-2.66-2.23-5.25-4.53-7.83-6.86a302.93,302.93,0,0,1-22.32,32c-20,25.5-43.84,47.2-69.16,67.18a39.29,39.29,0,0,1-14.07,6.52c-19,20.28-42.32,33.43-69.1,44.58-21.07,8.77-43.31,14.3-64.37,23.06a34,34,0,0,1-3.8,1.3c-22.91,12.81-46.15,25-71.89,29.4-1.76.29-3.48.54-5.18.77a211.28,211.28,0,0,1-16.66,32.79c-1.07,1.7-2.21,3.31-3.38,4.88a246.46,246.46,0,0,0,1.68,41.18,315.62,315.62,0,0,0,17.5,61.43c8.17,16.38,18.71,31,28,46.92,12.33,21.1,23.41,43.11,37.77,62.92,14.63,16.67,31.9,30.68,46.35,47.52,2.62,3.05,5.07,6.05,7.4,9a78.16,78.16,0,0,1,19.79,7.27,72.46,72.46,0,0,1,16.05,11.56,33.77,33.77,0,0,1,11.43,4.66c24.75,15.64,55.67,19.85,84,13.18,27.86-18.06,55.59-36.29,81.8-56.72,20.46-17,39.61-35.57,56-56.65,12.35-17.1,24.37-34.45,36.87-51.46-2.2,3-4.4,5.88-6.56,8.79l9.16-12.37c-.88,1.18-1.73,2.39-2.6,3.58,5-6.68,10-13.46,14.59-20.46a521.61,521.61,0,0,0,17.63-77.68A267.33,267.33,0,0,0,935.83,864.57Z" style="fill:#e7ba95"/><path id="_Path_3" data-name="&lt;Path&gt;" d="M538.67,862.74a41.89,41.89,0,0,1,26.12-14.39c1.19-.17,2.62-.19,3.38.75a3.49,3.49,0,0,1,.52,2.34c-.1,3.24-.87,6.43-1,9.66-.19,6.62,2.43,13,5,19.06,1.62,3.85,3.33,7.83,6.44,10.61a21.42,21.42,0,0,0,9.08,4.42,45.11,45.11,0,0,0,31-3.15,21.22,21.22,0,0,0,6.83-4.89c2.85-3.29,4-7.72,4.65-12a65.44,65.44,0,0,0-.55-22.42c-.36-1.82-.32-4.4,1.49-4.71a3.38,3.38,0,0,1,2.12.63A129.89,129.89,0,0,1,658.66,867a6.74,6.74,0,0,1,2.19,3.11c.49,2.17-1.17,4.18-2.77,5.71A78.16,78.16,0,0,1,623,895.11a128.69,128.69,0,0,1-20,3,101.41,101.41,0,0,1-19.24.27,59.41,59.41,0,0,1-41.24-23.84c-2.57-3.53-4.83-8-3.51-12.14" style="fill:#fff"/><path id="_Path_4" data-name="&lt;Path&gt;" d="M847.66,849.61c2.48,1.55,5.79,1.56,8,3.49s2.6,5.23,1.79,8-2.62,5.12-4.44,7.36c-8.16,10-17.72,19.84-30.1,23.43a57.38,57.38,0,0,1-13.3,1.9A133.38,133.38,0,0,1,744.24,880c-4.75-2.37-10-6.08-9.82-11.41.12-3.74,3-6.75,5.62-9.37,6.3-6.21,13-12.65,21.42-15.15,1.27,5.68.28,11.57-.16,17.37s-.21,12,3.06,16.83c2.17,3.19,5.47,5.41,8.79,7.38,5.61,3.33,11.63,6.21,18.08,7.19a31,31,0,0,0,24-6.34A28,28,0,0,0,825.5,864c-.27-5.67-2.38-11.13-2.77-16.8a5.46,5.46,0,0,1,.55-3.3,4.17,4.17,0,0,1,4.47-1.42,16.67,16.67,0,0,1,4.46,2.24,31.61,31.61,0,0,0,16.24,4.5" style="fill:#fff"/><path id="_Path_5" data-name="&lt;Path&gt;" d="M574,886.51c-2.82-5-3.7-11-4-16.74-.34-6.55.14-13.55,3.9-18.91,2.87-4.1,7.35-6.77,12-8.68,7.6-3.15,16.08-4.52,24.12-2.8s15.53,6.79,19.22,14.17a35.78,35.78,0,0,1,3.15,11.25,39.92,39.92,0,0,1-.4,15,28.29,28.29,0,0,1-18.3,19.75c-4.89,1.6-10.12,1.8-15.26,1.78a29.81,29.81,0,0,1-9.42-1.14c-6.34-2.13-10.68-7.87-14.61-13.31" style="fill:#a3d9cf"/><path id="_Path_6" data-name="&lt;Path&gt;" d="M761.54,853.78c3-5.78,6.78-11.79,12.82-14.23,3.7-1.5,7.81-1.46,11.79-1.23,13.1.77,30.2,1.44,35.61,16a25.43,25.43,0,0,1,1.3,6.42c.61,6,.55,12.15-1.43,17.82-4.34,12.42-17.18,17.6-29.4,17a32.34,32.34,0,0,1-11-2.08c-5.52-2.32-9.75-7.09-12.57-12.39-4.59-8.6-4.6-17.65-7.69-26.55" style="fill:#a3d9cf"/><path id="_Path_7" data-name="&lt;Path&gt;" d="M573.51,879c2.32-5,7.25-8.27,12.2-10.69a85.17,85.17,0,0,1,22.45-7.24c4.8-.86,9.77-1.35,14.52-.23s9.26,4.06,11.27,8.53a35,35,0,0,0-7.51-24.28,19.59,19.59,0,0,0-7.55-6.1c-4.49-1.84-9.56-1.15-14.35-.42L592,840.49c-6.44,1-13.54,2.32-17.53,7.51-3,3.86-3.51,9.06-3.4,13.93a65.32,65.32,0,0,0,2.65,17" style="fill:#81aea6"/><path id="_Path_8" data-name="&lt;Path&gt;" d="M761,860.92c16.28-3.46,33.64-6.72,49.21-.8,5.84,2.23,11.58,6.18,13.48,12.17,1.59-1.2,2-3.38,2.24-5.37a46.12,46.12,0,0,0-1.47-17.06c-.79-2.83-1.93-5.71-4.15-7.63s-5-2.58-7.78-3.1c-7.66-1.45-15.48-1.8-23.27-2.15-5.37-.24-11.07-.4-15.71,2.33s-7.28,7.79-9.7,12.6l-4.4,8.74a2.15,2.15,0,0,0,2.47.33" style="fill:#80ada5"/><path id="_Path_9" data-name="&lt;Path&gt;" d="M546.45,878.74c-.1-4.48,2.11-8.76,5.15-12s6.85-5.7,10.64-8.05c10.67-6.6,21.84-13.07,34.22-15a42.58,42.58,0,0,1,12.8-.1c8.41,1.27,16.1,5.35,23.61,9.37l29.07,15.57a7.33,7.33,0,0,0-1.36-3c-6.36-9.57-16.54-16.09-27.35-19.86s-22.32-5-33.74-5.8a77.77,77.77,0,0,0-16.64.12,85.92,85.92,0,0,0-14.8,4c-4.43,1.5-8.91,3-12.86,5.51-4.38,2.78-8,6.68-12.14,9.75-1.5,1.1-3.18,2.22-3.78,4-.72,2.14.4,4.48,1.85,6.21s3.26,3.19,4.29,5.19a8,8,0,0,1,.85,4.64" style="fill:#d1d3d4"/><path id="_Path_10" data-name="&lt;Path&gt;" d="M734.06,866.12a30.51,30.51,0,0,1,25.39-10.24c6.18-7.31,13.09-15.06,22.45-16.91a38.58,38.58,0,0,1,10.84-.17c9.06.78,18.41,2.25,26,7.28,2.94,1.94,5.54,4.37,8.51,6.27,7.43,4.75,16.85,5.95,23.73,11.48,1.49,1.2,3.28,2.68,5.06,2s2.17-3,2.3-4.85a14.91,14.91,0,0,0-.46-6.14c-1.62-4.4-6.79-6.14-11.33-7.27-11-2.73-22-5.14-33.07-7.55-6.13-1.33-12.31-2.67-18.57-2.68a66.45,66.45,0,0,0-18.52,3.08c-15.65,4.56-30.89,12.35-41.19,25.05" style="fill:#d1d3d4"/><path id="_Path_11" data-name="&lt;Path&gt;" d="M661.57,1075.25l-9.42-7a37.2,37.2,0,0,1-5.55-4.7c-3.16-3.45-4.92-7.93-6.63-12.29-.28-.73-.52-1.68,0-2.21a2,2,0,0,1,1.32-.35A72.3,72.3,0,0,1,653,1050c14.18,2.27,28.46,4.42,42.82,4.28,12.84-.12,25.59-2.08,38.28-4.06,7.89-1.23,15.93-2.47,23.83-1.26a4.7,4.7,0,0,1,3,1.31,4.14,4.14,0,0,1,.66,3.09c-.61,6.17-5.88,10.71-10.93,14.27-11.3,8-23.92,14.7-37.63,16.32-10,1.18-20.2-.43-30-3-4.76-1.27-9.47-2.78-14.09-4.51-2.5-.94-5.06-2-7.73-1.94" style="fill:#fff"/><path id="_Path_12" data-name="&lt;Path&gt;" d="M677,937.06c-.9,6.61-5.16,12.26-9.85,17s-10,8.91-13.89,14.31-6.28,12.49-4.13,18.81,8.41,10.51,14.39,13.71a43.66,43.66,0,0,1-5.16-10.14,22.23,22.23,0,0,1,3.45-19.5c2.82-3.74,6.78-6.48,9.74-10.11a25.09,25.09,0,0,0,4.18-23.46" style="fill:#be9b7c"/><path id="_Path_13" data-name="&lt;Path&gt;" d="M644.82,1064.34l16.37,25.29c3.53,5.46,7.11,11,11.8,15.45s10.7,7.9,17.16,8.26a33.77,33.77,0,0,0,7.7-.65,86.89,86.89,0,0,0,31.19-12.2,39.47,39.47,0,0,0,9.78-8.27,50.58,50.58,0,0,0,4.84-7.83l5.53-10.28a126.62,126.62,0,0,1-12.89,7.14c-15.36,7.15-33.3,9-49.49,4-15-4.59-27.82-14.56-42.14-21" style="fill:#be9b7c"/><ellipse id="_Path_14" data-name="&lt;Path&gt;" cx="611.58" cy="880.42" rx="8.14" ry="8.19" transform="translate(-15.91 11.27) rotate(-1.04)" style="fill:#fff;opacity:0.44"/><ellipse id="_Path_15" data-name="&lt;Path&gt;" cx="802.78" cy="876.94" rx="8.14" ry="8.19" transform="translate(-15.82 14.75) rotate(-1.04)" style="fill:#fff;opacity:0.44"/><path id="_Path_16" data-name="&lt;Path&gt;" d="M741.76,576.57l-215.7,43.31c-21.5,4.32-43.47,8.82-62.29,20.12-37.16,22.31-55.41,68.14-55.44,111.66s15.37,85.46,32.27,125.53c8.12,19.26,16.68,38.45,21.79,58.73,3.94,15.65,5.82,31.89,11.59,47,6.66,17.37,18.2,32.37,30.25,46.51,23.64,27.74,50,53.46,69.27,84.46s30.85,69.09,21.22,104.32c-1.75,6.39-5.16,13.49-11.62,14.79-2.55.52-5.18,0-7.72-.51a513,513,0,0,1-137.46-49.6c-11.67-6.22-23.24-13-32.72-22.25-21.89-21.37-30.06-53.64-30-84.32s7.3-60.8,11.71-91.15c14.16-97.36-.8-196.94,9.77-294.76,2-18.72,5.81-38.93,19.8-51.43,7.84-7,18-10.71,27.86-14.25,95.65-34.31,197.41-69.11,296.77-48" style="fill:#603913"/><path id="_Path_17" data-name="&lt;Path&gt;" d="M506.73,709.14q-5.62,33.21-8.4,66.83c-.9,10.85-.6,23.83,8.39,29.9,6.49,4.39,15.42,3.23,22.34-.46,15.58-8.32,22.77-26.46,28.76-43.15,3.11,8.9-2.61,22.12,5.81,26.28,2.52,1.24,5.49,1,8.27.56,36.51-5.32,68.52-26.51,99.17-47.16,10-6.71,20.17-13.65,27.14-23.47,4.21-5.93,7.08-12.7,9.92-19.41q6.35-15,12.7-30l-1.63,21.46c3.89,2.47,8.9-.17,12.65-2.85a283.62,283.62,0,0,0,65-64.68c-.69,20.43-11.21,39.25-23.64,55.42-44,57.26-112,89.58-177.59,119.49-36.19,16.5-72.85,33-111.9,40.37-2.32.43-4.79.82-7-.1-4.88-2.06-5.13-8.82-4.48-14.09a371.61,371.61,0,0,1,34.6-116.68" style="fill:#603913"/><path id="_Path_18" data-name="&lt;Path&gt;" d="M939.67,915.22A387,387,0,0,1,893,1066.48c-17.92,32.35-41.09,63.82-44.28,100.72-.55,6.33-.41,13,2.55,18.62,4.68,8.84,15.13,12.86,25,14.47a88.81,88.81,0,0,0,40.23-2.76c-20.42,23.56-53,31.41-83.37,38-6.75,1.47-14.08,2.88-20.33-.06-5.94-2.79-9.56-8.92-12.18-15-9.89-22.85-10.32-48.55-10.59-73.47,0-3.24,0-6.59,1.26-9.55,1.54-3.52,4.7-6,7.65-8.42,11.12-9.18,20.87-19.91,30.57-30.6,24.4-26.9,48.91-53.93,69-84.21S934.3,950.07,939.19,914" style="fill:#603913"/><path id="_Path_19" data-name="&lt;Path&gt;" d="M769.7,695.61,654.81,784.35c-5.29,4.09-11.21,10-9.23,16.4,1.36,4.4,5.92,6.79,9.45,9.74s6.24,8.52,3.15,11.92c-40.51-11.25-83.69,10.13-113.62,39.79-2.36,2.34-4.82,5.07-4.93,8.41s2.12,6.15,4.43,8.47c21.55,21.72,56.79,21.6,86.23,13.52,7-1.91,14.41-4.19,21.28-1.91,6.5,2.16,11.07,8,14.64,13.86C670.4,911.46,673.8,919,675,927c1.89,12.39-1.55,24.91-4.95,37l-8.47,30c-1.82,6.45-3.84,13.23-8.7,17.81-5.53,5.2-13.54,6.47-20.39,9.71s-13.25,10.81-10.33,17.83c1.32,3.21,4.27,5.38,6.8,7.75,20.76,19.41,15.76,54.5,31.25,78.37,12,18.56,35.37,27.5,57.38,26.57s42.84-10.42,61.5-22.19,35.73-25.94,54.37-37.74c-6.83,15.25-19.44,27-31.76,38.22-29.85,27.22-64,55.8-104.32,55.26-34.22-.46-64.23-22.06-90.68-43.91-44.92-37.11-87.57-78.39-117-128.78-19.45-33.27-33-71.48-29.8-109.94a134,134,0,0,1,7.32-33.87c3.24-9.09,7.6-18,14.43-24.8,5.8-5.77,13.11-9.73,20.42-13.35,34.84-17.27,72.21-28.7,108.17-43.49a625.51,625.51,0,0,0,156.9-93.39" style="fill:#cea583"/><path id="_Path_20" data-name="&lt;Path&gt;" d="M414.12,616c-3.45-36.92-10-125.09-12.71-130.57-4.74-9.68-14.88-15.18-24-20.92-42.67-27-73.18-72.64-81.87-122.56s4.59-103.29,35.62-143.21c9.12-11.72,19.78-22.4,32.43-30.14,11.58-7.08,24.55-11.55,37.64-15.09a305.69,305.69,0,0,1,89.53-10.41c3.61.11,7.34.28,10.72-1,4.34-1.64,7.48-5.39,10.42-9q26.66-32.67,53.33-65.32c13.19-16.15,26.71-32.6,44.32-43.71C654.66-4.31,713.64,9,763.22,28.44c36.46,14.29,74.35,33.82,91.83,69,8.69,17.49,14.1,40.29,32.56,46.41,6.62,2.2,13.78,1.65,20.75,1.49,55.4-1.27,110.76,25.25,144.7,69.31s45.6,104.6,30.51,158.22c-5.7,20.24-15.31,39.89-30.71,54.14-15.9,14.71-37.23,23.07-51.3,39.57-29,34-16,85.14-17.53,129.89-.19,5.45-1.81,12.32-7.16,13.23a12.25,12.25,0,0,1-5.15-.59c-91.07-23.85-184.15-46-278.13-41.41-82.52,4.08-162.45,28.69-242.15,50.59-13.05,3.58-27.91,6.87-39.39-.35" style="fill:#f1f2f2"/><path id="_Path_21" data-name="&lt;Path&gt;" d="M514,122.26c48.1-39.17,115.55-43.41,177.09-36.63,71.63,7.88,147.33,32.06,189.12,91.1-10.39-9.41-2.84-30.46,11.12-31,3.79-.15,7.51.91,11.13,2.05a249,249,0,0,1,172.82,258.49c.12-42.59,28.3-83.15,20.71-125-3.55-19.57-14.62-36.87-26.41-52.84-21.85-29.59-47.63-57.15-79.83-74.75s-71.66-24.24-106-11.46c-1.91.71-3.92,1.49-5.94,1.15-3.64-.61-5.66-4.47-7.18-7.85-16.26-36-39.28-69.78-71.28-92.73C754.29,10.44,693.76,2.76,641,19.32s-97.23,56.05-123.47,105" style="fill:#fff"/><g id="_Group_" data-name="&lt;Group&gt;"><path id="_Path_22" data-name="&lt;Path&gt;" d="M660.25,968.16a65.47,65.47,0,0,0-5.11,8.29,19.61,19.61,0,0,0-2.25,10.79,14.09,14.09,0,0,0,1.62,5.26,18,18,0,0,0,1.3,2.15c.51.66.89,1.19,1.52,1.89a22.36,22.36,0,0,0,3.27,2.89,18.22,18.22,0,0,0,3.59,2,19.27,19.27,0,0,0,6.7,1.41,26,26,0,0,0,5-.35c1.35-.27,2.38-.54,3.08-.75l1-.35-1.1-.09c-.71-.06-1.76-.16-3.05-.38a21.7,21.7,0,0,1-9.45-3.68,15.3,15.3,0,0,1-2.21-2.06,15.62,15.62,0,0,1-1.91-2.64,10.2,10.2,0,0,1-1.57-5.71,12.53,12.53,0,0,1,2.36-5.91,75.2,75.2,0,0,1,5.1-6.65c3.81-4.59,7.95-9.72,10.71-15.57.35-.72.66-1.46,1-2.2s.66-1.65.87-2.32l.31-1,.15-.48.18-.65c.18-.67.37-1.33.51-2a51.88,51.88,0,0,0,1.15-7.53,45.38,45.38,0,0,0-.52-11.51c-.3-1.41-.53-2.52-.78-3.28s-.38-1.17-.38-1.17-.28.33-.73,1-1.06,1.6-1.81,2.81A72.74,72.74,0,0,0,674,940.44c-.83,2.09-1.61,4.36-2.41,6.75-.18.6-.37,1.21-.56,1.83s-.39,1.17-.58,1.77-.39,1-.58,1.57-.48,1.11-.73,1.67a61.55,61.55,0,0,1-3.88,6.88C663.72,963.24,662,965.63,660.25,968.16Z" style="fill:#231f20"/><path id="_Path_23" data-name="&lt;Path&gt;" d="M683.76,994.47a1.09,1.09,0,0,0,.21,1.29,21.91,21.91,0,0,0,4.18,3,24.21,24.21,0,0,0,4.82,2.14,18,18,0,0,0,3.08.7,5.79,5.79,0,0,0,.61,0l.39,0h.51l.3,0a13.77,13.77,0,0,0,1.83-.23c.49-.11,1-.25,1.42-.39l.09,0c.56-.18,1.09-.38,1.53-.56a19.76,19.76,0,0,1,7.11-1c2,0,3.73,0,4.7-2.1.69-1.55.45-2.53,0-3.14a1.1,1.1,0,0,0-.74-.78l-.33-.1-.27-.08c-.15,0-.33-.1-.58-.15l-.28-.06a9.25,9.25,0,0,0-1.75-.13h-.51a.71.71,0,0,0-.2,0,9.81,9.81,0,0,0-1.5.16,27.62,27.62,0,0,0-5,1.38l-1,.35a35.18,35.18,0,0,1-3.82,1.2l-.22,0a4.51,4.51,0,0,1-.85.12l-.3,0h-.67a19.52,19.52,0,0,1-2.38-.28c-1.33-.23-2.61-.52-3.77-.78l-.76-.18c-2.76-.66-4.71-1.05-4.71-1.05A1.09,1.09,0,0,0,683.76,994.47Z" style="fill:#231f20"/><path id="_Compound_Path_" data-name="&lt;Compound Path&gt;" d="M766.33,1044.73h0l-2.19.09c-19.85.84-25.95-9.79-42.73-9.26-6.81.21-15.35,6.55-27.23,3.14s-20.58-5.27-35.42.64a46.78,46.78,0,0,1-16.77,3c-.93,0-1.92-.07-3-.06-1.85-.07-3.56-.21-5.09-.39-10-1.68-17.36-8.12-14.89-5.35,2.86,3.21,9.44,7.82,13.59,10.46,3.56,2.27,6.15,7.13,6.82,8.46l.12.25,0,.11h0c9.26,18.8,27.94,53.4,62,52.78,32.49-.59,52.82-32.86,61.53-50.52h0c2.3-4.89,5.43-9.17,11-11.21.58-.22,1.11-.43,1.54-.63a28.18,28.18,0,0,0,9.24-6.48C786,1038.44,776.94,1044,766.33,1044.73Zm-7.4,10.35c-8.43,7.07-20.1,15.28-30.22,16.81-14.76,2.23-29.32,5.89-29.32,5.89-8.44-2.35-16.64-2-29.71-6.29-6.07-2-14.31-8-21.41-13.85-.51-.45-1.06-.91-1.68-1.39h0c-.94-.8-1.86-1.58-2.74-2.35-4.36-4.23,3.46-1.24,3.46-1.24l0,0a139.18,139.18,0,0,0,53.84,9.9c21.87-.4,42.72-5.61,55.93-9.69h0S763,1051.45,758.93,1055.08Zm4.65-4,.15-.37.4-.14Z" style="fill:#891826"/><path id="_Path_24" data-name="&lt;Path&gt;" d="M723,1115c-1.19-.18-2.48-.44-3.86-.52s-2.84-.17-4.35-.18-3.07.12-4.65.26-3.18.45-4.77.74-3.16.7-4.67,1.21a41.42,41.42,0,0,0-4.39,1.62,38.86,38.86,0,0,0-7.28,4,31,31,0,0,0-4.51,3.81,14.51,14.51,0,0,0-1.45,1.73l2.12-.62c1.35-.37,3.21-.92,5.43-1.5s4.77-1.28,7.51-1.91c1.35-.35,2.77-.63,4.2-1s2.89-.59,4.34-.93,2.93-.53,4.37-.86,2.87-.49,4.26-.77,2.74-.43,4-.67,2.52-.39,3.66-.62,2.19-.46,3.13-.58,1.77-.32,2.45-.46c1.37-.28,2.18-.52,2.18-.52s-.75-.33-2.09-.78A34.42,34.42,0,0,0,723,1115Z" style="fill:#231f20"/><path id="_Path_25" data-name="&lt;Path&gt;" d="M733.72,827.6a4.6,4.6,0,0,0,1.84-.41l21.26-9.34c7.92-3.47,15-6.44,21.74-9.08,4.77-1.88,8.7-3.35,12.4-4.62,4.14-1.49,8.46-2.85,12.91-4.07.69-.21,1.38-.36,2.07-.51l3.12-.72v0h0l4.18-.51c.62,0,1.21,0,1.8,0h1.35a26.81,26.81,0,0,1,4,.23c.75.08,1.49.16,2,.19,2,.32,4.21.67,6.23,1.1a115.1,115.1,0,0,1,11.73,3.27c3.4,1.12,6.87,2.41,10.34,3.86,2.75,1.1,5.47,2.3,8.59,3.76,2.54,1.17,4.72,2.26,6.51,3.17,3.52,1.8,5.52,2.94,5.54,2.95a2.15,2.15,0,0,0,2.92-.74,2.19,2.19,0,0,0-.63-3c-.08-.05-2-1.35-5.51-3.47-1.76-1.06-3.91-2.34-6.41-3.73-3.09-1.73-5.81-3.17-8.53-4.51-3.47-1.75-7-3.36-10.42-4.78a122.17,122.17,0,0,0-12.2-4.38c-2.27-.67-4.65-1.23-6.87-1.73-.71-.11-1.42-.24-2.12-.36a32.14,32.14,0,0,0-5.09-.65l-1.16-.08c-.89-.07-1.79-.14-2.75-.13l-3.46.16-5,.65c-.86.13-1.73.26-2.5.44-4.74.93-9.4,2-13.85,3.26-3.89,1-8.06,2.25-13.1,3.81-7.07,2.2-14.53,4.69-22.81,7.62-9.6,3.4-15.78,5.76-18.62,6.85a4.81,4.81,0,0,0-3,3.48l-1.35,6.16a4.84,4.84,0,0,0,1.65,4.79A4.74,4.74,0,0,0,733.72,827.6Z" style="fill:#231f20"/><path id="_Compound_Path_2" data-name="&lt;Compound Path&gt;" d="M1100.8,305.91c-1.81-99.74-84-179.41-183.16-177.61a180,180,0,0,0-37.44,4.63c-2.25-6.13-4.82-12.11-7.62-18-.18-.38-.35-.76-.51-1.13h0C838.56,45.31,767.86-1.44,687.07,0A199.45,199.45,0,0,0,566.76,42.77,204.8,204.8,0,0,0,499.21,139a178.74,178.74,0,0,0-32.44-2.46c-2,0-4.06.17-6.08.27s-3.92-.08-5.89-.05c-99.18,1.81-178.39,84.41-176.58,184.15a180.92,180.92,0,0,0,87,151.45c2.43,2,7.08,4.67,14.87,8.18.18.08.37.15.55.24,3.83,1.84,7.74,3.53,11.71,5.11L394.94,626c-6.19,18.46-9.42,59.73-9.54,61.42C380.9,737,379,796,379.81,862.65c1.17,97.7-7.55,180.37-25.93,245.73l-1.27,4.51,3,3.56c57.4,67.09,141.76,115,237.56,134.76a15.31,15.31,0,0,0,5.79-.13l.08,0v0a14.36,14.36,0,0,0,9-6.15,73.58,73.58,0,0,0,15.73-41s0-.06,0-.08v-.19c.11-1.93.17-3.87.13-5.83l0-1.65c1.1-22.12,9.48-24.59,21.15-18.28l1.13.63.73.43,0,0c21.88,12.21,41.76,18.93,57.27,18.65s35.85-8.65,58.38-23h0c9.15-6.07,16-5.15,17.28,10.31,0,.39.07.75.11,1.1.9,20.5,4.48,40.74,16.95,56.21a17.69,17.69,0,0,0,6.33,5.31c4.16,1.84,9,1,13.3-.5,46.65-16.24,93.35-31.91,135.24-59,37-23.89,70.31-53.7,97.21-88.73h0a8.79,8.79,0,0,0,1.42-7.94h0c-19.89-64-31.15-144.83-33.49-240.34-1.57-64.3-5.38-121.42-11.31-169.78-.24-4.09-2.55-41.19-10.83-66.08l-2.41-132.56.75.06c65-26.77,109.17-95,107.8-170.24,0-.95-.09-1.87-.12-2.81C1100.8,308.4,1100.82,307.16,1100.8,305.91Zm-535.24,781.8c-49.92-53.35-82.09-110.54-91.13-160.81a85.3,85.3,0,0,0-1.66-11.32c-.53-4.78-.86-9.49-.95-14.11,0-1.92,0-3.84,0-5.78,2.61-25.74,19.77-48.27,39.33-54.94h0Q544.8,828.93,575,816.48h0s21.22-6.79,34.11-6.43c1.57.53,3.19,1.08,4.95,1.7,6.8,2.39,14,5.1,22.06,8.29l21.57,8.56a4.86,4.86,0,0,0,1.86.34,4.8,4.8,0,0,0,3.09-1.21,4.87,4.87,0,0,0,1.48-4.86l-1.57-6.09a4.83,4.83,0,0,0-3.09-3.37c-2.88-1-9.14-3.12-18.86-6.17-5.65-1.77-10.9-3.35-15.92-4.79h0c-9.24-3.65,16.19-15.9,22-18.91l.11-.06c43.16-22.28,78.71-45.79,106.33-70.41a282.18,282.18,0,0,0,22.65-22.49h0c15.86-15.72,35.71-42.51,56-22.58,1.32,1.46,2.64,2.93,3.94,4.43,1.91,2.42,3.54,4.33,4.94,5.82,49.38,59.46,83.69,143,85,215,1,55.38-31.19,124.45-88.32,189.52-47.18,53.73-104.57,94.64-133.49,95.17C673.14,1178.46,615,1140.53,565.56,1087.71Zm466.92,4.5c-46.73,59.22-114.28,104.31-193.15,129.44-2.13.51-32.47,7.34-39-12.47-.3-1.07-.58-2.14-.82-3.23-.16-.84-.32-1.6-.47-2.32a56.47,56.47,0,0,1-.91-9l-.83-45.59c72.2-59.79,149.52-164.71,147.85-256.19C943.38,793.72,842.66,625.76,797,617.8c-3.85-.67-11.56,49.25-84.55,102.64a3.22,3.22,0,0,1-4.77-4.06l.06-.13c1.17-2.22,2.25-4.46,3.27-6.7s2-4.45,2.93-6.65c1.84-4.39,3.43-8.72,4.75-12.87.72-2,1.27-4.1,1.82-6.07s1.07-3.86,1.46-5.72c.92-3.66,1.46-7.09,2-10.09s.72-5.68,1-7.84l.44-6.84-1.54,6.64c-.61,2.09-1.3,4.62-2.22,7.47s-2.06,6-3.52,9.41c-.67,1.7-1.44,3.45-2.3,5.23s-1.68,3.64-2.68,5.48c-1.91,3.72-4.09,7.55-6.5,11.39-1.22,1.93-2.44,3.88-3.79,5.78s-2.66,3.87-4.09,5.76c-2.8,3.84-5.86,7.58-9,11.24s-6.38,7.2-9.68,10.58-6.64,6.62-10,9.65c-6.6,6.09-13.11,11.37-18.78,15.7q-2.31,1.76-4.42,3.29a896.24,896.24,0,0,1-84.42,39.24c-11.07,4.54-10.58-4.6-8.15-11.1l0,0c.43-1.24.89-2.48,1.27-3.69.72-2,1.27-4.1,1.82-6.07s1.07-3.86,1.46-5.72c.91-3.66,1.46-7.09,2-10.09s.72-5.68,1-7.84c.28-4.35.43-6.84.43-6.84s-.55,2.42-1.53,6.65c-.61,2.08-1.3,4.61-2.22,7.46s-2.06,6-3.52,9.41c-.67,1.7-1.44,3.45-2.31,5.23s-1.67,3.64-2.68,5.48c-1.5,2.93-3.21,5.94-5,9-12.48,17.45-36.27,28.49-37.56,29.08q-6.41,2.26-13,4.53a9.34,9.34,0,0,1-12.19-10.53c11.73-65.24,33.51-126,33.51-126C481.59,749,451.21,842.9,452.29,901.82a184.11,184.11,0,0,0,4.57,36.65v0l0,.12q1,4.47,2.21,9c6.5,30,12,86.63,13.79,128.08,0,0,9.85-65,31-33.79.25.38.49.73.73,1.08a470,470,0,0,0,40.4,51.3h0l.09.09q1.74,1.92,3.51,3.84c21.52,24.65,40.05,69,36.31,113.9-2.26,11.33-14.83,12.83-32.43,8.58-60.45-19.86-114.24-51.79-156.45-93-14.08-30.91,1.61-74.15,9-96.91a150.83,150.83,0,0,0-14,15.57c8.81-53.61,12.87-115.16,12.05-184-.79-66.07,1.07-124.43,5.52-173.57.31-4,.89-10.39,1.71-17.63,53.5-80.16,317.15-92.68,318.24-92.74,113.89,5,227.83,38.39,250.77,45.43,7,23.55,9,58.31,9,58.69l.05.6C994.22,731,998,787.63,999.56,851.49,1001.88,946.46,1013,1027.42,1032.48,1092.21ZM923.9,472.59a160.84,160.84,0,0,1-63.49-11.68s39.56,35.52,100,24.81l.14,0a12.59,12.59,0,0,1,14.77,12.22l2,107.08C938.43,593.52,808.82,558.24,690,560.4c-77,1.4-151.75,17.11-206,32a8.91,8.91,0,0,1-11.18-7.52l-7.86-63.45-3.18,36.43A63.56,63.56,0,0,1,424,610.53L422.1,506.1A14.68,14.68,0,0,1,433,491.63c3.51,0,6.78-.08,9.77-.26,18.4.42,31.09-2.8,31.09-2.8-32.35.27-62.9-14.4-72.87-19.7l-.87-.46-1.1-.61c-51.12-28.75-90.34-85.39-91.47-147.46C306,235.9,368.76,165.06,450.39,155.13L452,155c3.31-.37,6.66-.61,10-.78,38.36.51,89.26,9.26,89.26,9.26A196,196,0,0,0,517.21,147,187.07,187.07,0,0,1,577.56,63.1,182.25,182.25,0,0,1,687.5,24c69.34-1.26,130.43,36.37,162.94,92.83l.21,0c24.26,35.56,30.5,84.44,30.5,84.44a140.06,140.06,0,0,0,3.12-35.46c0-3.21-.08-6.26-.28-9.17l1.66-.5a163,163,0,0,1,32.42-3.9c88.52-1.61,162,68.62,165.34,157.19C1083.28,398.13,1012.41,471,923.9,472.59Z" style="fill:#231f20"/><path id="_Compound_Path_3" data-name="&lt;Compound Path&gt;" d="M638.19,891.31c1.09-.56,2.18-1.11,3.28-1.69a19.59,19.59,0,0,0,2.67-1.68l7.59-5.63-10.3,3.48-2.11.75a11.73,11.73,0,0,1-4.34.5,2.05,2.05,0,0,1,.08-.19,1,1,0,0,0,.07-.16,37.55,37.55,0,0,0,2.69-31.63l-.13-.43c-.2-.68-.28-1.85,0-2.13.18-.17.93-.24,2.55.52.85.46,1.69.92,2.51,1.4.37.23.71.43,1,.59l3.33,2c3,1.87,5.17,3.39,7.2,4.91s4.54,3.39,6.88,5.5l2.88,2.23S655,857.39,649.8,853.15c-2.52-2-4.93-3.83-7.36-5.45-15.31-10.47-34.14-16.69-52.75-14.89-13.2,1.28-25.84,6.26-37,13.34-.86.54-1.71,1.1-2.55,1.67-.14.09-14.32,9.52-27.87,5.59l-2.84-.83,1.64,2.48c.45.68,11.09,16.73,15.55,21.68a82.64,82.64,0,0,0,5.8,6.31,75.52,75.52,0,0,0,6.44,5.55,74.34,74.34,0,0,0,7.09,4.74,77.76,77.76,0,0,0,7.59,3.88c2.09.9,4.16,1.69,6.18,2.37l5.56,1.59a22.27,22.27,0,0,1,3.86,1.14c-.55-.24-2.71.49-3.36.56-1.69.17-3.39.19-5.08.22-4.79.1-9.57-.17-14.36-.14l-9.5.11,9.28,2c19.56,4.31,40.85,3.7,59.85-2.87a88,88,0,0,0,11-4.65C630.82,895.67,634.36,893.26,638.19,891.31Zm-70.54-3.13a65.66,65.66,0,0,1-6.41-3.58,64.24,64.24,0,0,1-6-4.32,70.18,70.18,0,0,1-5.48-4.85A67.87,67.87,0,0,1,544.9,870c-.65-.81.4-3.54,1.44-5.32,9.84-7.3,19.36-12.68,20.82-11.81a1.52,1.52,0,0,1-.06.86,38,38,0,0,0,4.11,36C570,889.27,568.86,888.75,567.65,888.18Zm46.74,5.24c-1,.18-1.92.35-2.95.47-2.48.42-5,.62-7.56.8s-5.15.17-7.54.15l-3.09-.12a28.29,28.29,0,0,1-19.14-26.25,27.91,27.91,0,0,1,1.79-10.41c2.1-2,21.53-20.08,46.49-9.75a28.27,28.27,0,0,1-8,45.11Z" style="fill:#231f20"/><path id="_Path_26" data-name="&lt;Path&gt;" d="M570.61,832.35c.92-.21,2-.4,3.31-.58h0c.55-.07,1.09-.17,1.65-.26s1.31-.22,1.94-.3c.84-.07,1.68-.16,2.54-.25,1.73-.19,3.51-.38,5.35-.42l1.5-.08c.88,0,1.77-.09,2.61-.11,1.42,0,2.87.08,4.36.08a41.86,41.86,0,0,1,5.62.31c1,.1,2,.2,3,.26,1.83.18,3.7.47,5.51.76,1,.17,2.08.33,3,.46l8.22,1.85,7.69,2.32a21.29,21.29,0,0,1,2.62.9l4,1.52c.66.26,1.31.5,2,.73a35.35,35.35,0,0,1,3.67,1.51l4.32,1.94c2.43,1.06,3.85,1.64,3.85,1.64l8.27,3.36-7.23-5.26s-1.22-.89-3.43-2.41L641,837.68a39.47,39.47,0,0,0-4.74-2.73l-.83-.42c-.63-.31-1.27-.66-1.93-1a41.46,41.46,0,0,0-4.78-2.26l-1.85-.73c-1.89-.74-3.85-1.52-6-2.26-1-.25-1.91-.52-2.88-.8-1.86-.52-3.76-1.06-5.78-1.53-1-.16-2.05-.34-3.08-.52-1.95-.35-4-.71-6.07-.94-1-.05-2-.13-3-.21a49.12,49.12,0,0,0-6.18-.23c-1.53,0-3,0-4.57.08-1,.07-1.95.17-2.91.27l-1.43.14a47.3,47.3,0,0,0-6.05.9c-.75.14-1.5.29-2.31.43l-1,.24c-2.22.54-4.31,1.06-6.23,1.74l-3.17,1.08-2.72,1.13c-1.44.58-2.66,1.2-3.73,1.75l-.71.36a38.57,38.57,0,0,0-3.69,2.23l-7.2,5.23,8.24-3.33A87,87,0,0,1,570.61,832.35Z" style="fill:#231f20"/><path id="_Path_27" data-name="&lt;Path&gt;" d="M601.89,849.55a18.41,18.41,0,0,0,.67,36.82c.38,0,.75,0,1.26-.08l1.71-.16-.87-1.48a8,8,0,0,1,12.73-9.44l1.17,1.27.64-1.6a18.45,18.45,0,0,0-17.31-25.33Z" style="fill:#231f20"/><path id="_Compound_Path_4" data-name="&lt;Compound Path&gt;" d="M837.44,900.75c2.21-.49,3.45-.81,3.45-.81l9.21-2.38-9.5.23s-1.3,0-3.55.17l-4,.26c-.95.09-2,.11-3.1.14-.65,0-1.33,0-2,.06s-1.27,0-1.93.05l-.53,0a33.63,33.63,0,0,1-7.7-.51c.68.17,3-1.06,3.73-1.26,18-5,32.07-17,42.45-32.22l.51-.75c3.32-5,6.51-10,9.63-15.11l1.55-2.54-2.81.93c-13.37,4.4-27.91-4.48-28.05-4.57-15.44-10.2-34.57-15.65-53-13.2-13.91,1.85-27.17,7.76-38.51,16a83.81,83.81,0,0,0-18.71,19.16c-.79,1.08-1.58,2.17-2.34,3.27l2.31-1.54A88.79,88.79,0,0,1,754.86,851c1.6-.83,2.36-.79,2.55-.63s.32,1.33.12,2.13l-.07.32a37.53,37.53,0,0,0,3.77,31.56l.11.22.09.19a11.27,11.27,0,0,1-4.34-.34l-10-2.37c4.21,3.56,9.52,6.32,14.34,8.92a99.74,99.74,0,0,0,28,10.4,115.33,115.33,0,0,0,30.18,2,81.27,81.27,0,0,0,13.89-1.81ZM828.08,849a2.42,2.42,0,0,1-.15-.9c1.45-.93,11.17,4.07,21.26,11,1.09,1.7,2.25,4.44,1.64,5.27a64.38,64.38,0,0,1-10,10.7,63.93,63.93,0,0,1-5.78,4.51,66,66,0,0,1-6.26,3.8c-1.2.62-2.36,1.19-3.52,1.71a38.1,38.1,0,0,0,6.1-21.34A37.7,37.7,0,0,0,828.08,849ZM803.4,890.9l-3,.23c-2.41.11-5,.21-7.57.13s-5.09-.2-7.64-.54c-1-.07-1.94-.21-2.91-.35a28.28,28.28,0,0,1-9.63-44.79c24.56-11.22,44.65,6.08,46.82,8a28.28,28.28,0,0,1-16,37.27Z" style="fill:#231f20"/><path id="_Path_28" data-name="&lt;Path&gt;" d="M835.27,827.12l-.71-.33c-1.08-.5-2.32-1.08-3.76-1.6l-2-.76-3.93-1.23a62.83,62.83,0,0,0-6.31-1.52l-1.07-.22-2.25-.33a46.53,46.53,0,0,0-6-.67l-1.47-.09c-1-.07-1.94-.13-3-.17-1.48,0-3,0-4.46.08a53.08,53.08,0,0,0-6.22.46c-1,.12-2,.24-3.07.33-2,.3-4,.73-6,1.15l-3.13.65c-1.92.53-3.79,1.13-5.63,1.73l-2.93.93c-2,.78-3.95,1.63-5.81,2.44l-1.81.79A40.73,40.73,0,0,0,761,831.2c-.64.38-1.28.74-1.92,1.09l-.79.45a37.6,37.6,0,0,0-4.6,2.87l-3.89,2.82c-2.14,1.58-3.33,2.52-3.33,2.52l-7,5.51,8.13-3.65s1.4-.63,3.8-1.79l4.24-2.09,0,0a34.41,34.41,0,0,1,3.56-1.61c.63-.26,1.27-.52,1.91-.8l4-1.66a22.11,22.11,0,0,1,2.63-1l7.48-2.56,8.14-2.15c1-.18,2.06-.38,3.09-.59,1.79-.35,3.65-.71,5.45-1,1-.1,2-.24,3-.37a43.63,43.63,0,0,1,5.65-.52c1.45,0,2.89-.14,4.26-.23.9,0,1.78,0,2.66,0l1.53,0c1.82,0,3.61.1,5.34.22.86.06,1.71.13,2.5.16s1.34.15,2,.24l1.66.2c1.34.13,2.4.27,3.36.46a86.31,86.31,0,0,1,14.3,3.42l8.35,3-7.38-5A37.21,37.21,0,0,0,835.27,827.12Z" style="fill:#231f20"/><path id="_Path_29" data-name="&lt;Path&gt;" d="M793,846.07a18.41,18.41,0,0,0,.67,36.82c.23,0,.45,0,.68,0l2-.14-.89-1.52a8,8,0,0,1,6.72-12.08,8,8,0,0,1,6.17,2.81l1.14,1.34.68-1.62A18.42,18.42,0,0,0,793,846.07Z" style="fill:#231f20"/><path id="_Path_30" data-name="&lt;Path&gt;" d="M990.91,1023.63c-.48-2.46-1.08-4.92-1.57-7.44s-1-5.09-1.5-7.65c-1.07-5.13-2-10.38-3-15.61s-1.89-10.49-2.94-15.64S980,967,979.14,962.1c-1.78-9.88-3.44-19.1-4.87-27-.71-4-1.36-7.6-2-10.83s-1.16-6-1.58-8.37-.84-4.16-1.06-5.41l-.4-1.91s-.38,2.7-.68,7.45c-.16,2.37-.32,5.26-.4,8.56s-.18,7,0,11.11c0,2,.07,4.15.11,6.34s.21,4.46.31,6.79c.22,4.65.66,9.54,1.11,14.61s1.13,10.27,1.87,15.56,1.6,10.65,2.66,16,2.06,10.65,3.4,15.84,2.53,10.3,4,15.18c.73,2.43,1.45,4.83,2.15,7.18s1.55,4.6,2.33,6.81c1.57,4.4,3,8.56,4.68,12.3s3.08,7.18,4.44,10.2,2.81,5.53,3.9,7.64c2.23,4.2,3.61,6.54,3.61,6.54s-.51-2.7-1.59-7.31c-.53-2.3-1.2-5.09-2-8.25s-1.46-6.83-2.42-10.72-1.73-8.19-2.76-12.66S991.93,1028.52,990.91,1023.63Z" style="fill:#231f20"/><path id="_Path_31" data-name="&lt;Path&gt;" d="M662.54,625.92c-1.06,2.54-2.26,5.41-3.57,8.53-5,12.48-11.72,29.12-18.42,45.75S627.08,713.44,622,725.91c-2.47,6.31-4.52,11.6-5.91,15.35s-2.1,5.94-2.1,5.94,1.52-1.73,4-4.88c1.24-1.57,2.73-3.5,4.31-5.78s3.44-4.83,5.29-7.71,3.81-6,5.8-9.4,4-7,6-10.78,4-7.75,5.79-11.85,3.65-8.29,5.43-12.49,3.33-8.5,4.76-12.76,2.81-8.47,4.06-12.56,2.29-8.1,3.19-11.92,1.73-7.44,2.36-10.81,1.16-6.47,1.56-9.24.71-5.17.92-7.16c.41-4,.53-6.28.53-6.28s-1,2.06-2.61,5.73C664.59,621.15,663.63,623.37,662.54,625.92Z" style="fill:#231f20"/><path id="_Path_32" data-name="&lt;Path&gt;" d="M449,660.93c-.94,2.91-2,6.2-3,9.81s-2.06,7.54-3.08,11.72-2,8.6-2.95,13.18-1.84,9.35-2.61,14.21-1.49,9.81-2.19,14.76-1.2,9.92-1.59,14.83-.77,9.73-1.05,14.41c-.47,9.37-.6,18.12-.4,25.64.07,3.75.25,7.19.44,10.24s.38,5.71.59,7.9c.4,4.38.77,6.88.77,6.88s.58-2.47,1.38-6.77,1.89-10.46,3.1-17.83c.56-3.68,1.17-7.66,1.82-11.88s1.23-8.65,1.89-13.25,1.27-9.34,1.92-14.16,1.26-9.72,1.9-14.62,1.22-9.8,1.83-14.63,1.18-9.58,1.68-14.19,1-9.08,1.49-13.31.84-8.25,1.22-12c.68-7.43,1.18-13.63,1.47-18S454,647,454,647s-1,2.34-2.46,6.47C450.75,655.5,449.85,658,449,660.93Z" style="fill:#231f20"/><path id="_Path_33" data-name="&lt;Path&gt;" d="M396.8,196.79c-1.81,1-4,2.28-6.43,3.85s-5.16,3.39-8,5.53-5.9,4.59-8.95,7.36a121.45,121.45,0,0,0-9.22,9.22,119.28,119.28,0,0,0-8.7,11A115,115,0,0,0,348,246.4c-1.09,2.39-2,4.22-3,6.72-1,2.35-1.69,4.69-2.47,7a89.51,89.51,0,0,0-3,13.95,79,79,0,0,0-.64,13.32,75,75,0,0,0,1.37,11.81c.43,1.8.82,3.51,1.27,5.12l1.5,4.48c.57,1.38,1.06,2.67,1.59,3.83s1.11,2.18,1.58,3.12a38.49,38.49,0,0,0,2.5,4.17l1,1.42-.38-1.67c-.25-1.09-.69-2.64-1-4.66s-.75-4.45-1.16-7.2c-.12-1.39-.25-2.87-.38-4.42s-.11-3.18-.17-4.88a101.6,101.6,0,0,1,2.49-22.76,121.52,121.52,0,0,1,3.54-12.33c.77-2,1.53-4.13,2.37-6.07s1.9-4.23,2.76-6.1c2-4,4.19-7.86,6.48-11.63s4.83-7.32,7.35-10.74,5.08-6.65,7.63-9.64,5-5.81,7.31-8.4l6.46-7,5.11-5.33c2.86-3,4.49-4.73,4.49-4.73l-1.54.75C400.07,195.07,398.59,195.74,396.8,196.79Z" style="fill:#231f20"/><path id="_Path_34" data-name="&lt;Path&gt;" d="M1021.78,401.06c-2.84,3.59-6,6.77-9,10-1.52,1.56-3.14,2.95-4.63,4.45l-2.24,2.18c-.75.7-1.55,1.32-2.31,2l-4.48,3.78c-1.44,1.24-2.95,2.26-4.34,3.34l-4.06,3-3.81,2.54c-1.2.81-2.34,1.54-3.37,2.27s-2.06,1.23-3,1.77c-3.59,2.11-5.65,3.43-5.65,3.43s2.32-.6,6.37-1.85c1-.33,2.15-.63,3.35-1.08s2.45-1,3.82-1.58l4.35-1.85c1.51-.71,3-1.6,4.63-2.45s3.33-1.74,5-2.79l5.1-3.4c.86-.6,1.78-1.17,2.64-1.82l2.59-2c1.74-1.37,3.52-2.77,5.27-4.29a122.46,122.46,0,0,0,10.05-10.07,111.09,111.09,0,0,0,16.8-24.12,121.74,121.74,0,0,0,6-12.94c.83-2.16,1.52-4.33,2.21-6.44l1-3.13c.31-1,.53-2.1.8-3.12.49-2.06,1-4.05,1.44-6s.61-3.87.9-5.68.57-3.55.72-5.22.17-3.28.24-4.78.16-2.88.19-4.16-.1-2.44-.14-3.5c-.21-4.22-.43-6.64-.43-6.64s-.53,2.37-1.28,6.53c-.2,1-.35,2.2-.65,3.43s-.63,2.54-1,3.95-.69,2.87-1.07,4.43-1,3.18-1.46,4.88-1,3.46-1.64,5.25-1.32,3.63-2,5.51c-.35.95-.65,1.92-1,2.87l-1.28,2.86c-.89,1.91-1.64,3.92-2.58,5.89-2,3.88-3.89,8-6.29,11.88-2.17,4-4.86,7.81-7.36,11.72C1027.43,393.8,1024.8,397.64,1021.78,401.06Z" style="fill:#231f20"/></g></svg>